<svg width="578" height="307" xmlns="http://www.w3.org/2000/svg" xmlns:undefined="http://sodipodi.sourceforge.net/DTD/sodipodi-0.dtd" version="1.1">
 <defs id="defs304">
  <rect id="rect1918" height="47.0168" width="165.5809" y="12.26525" x="148.71618"/>
  <clipPath id="zr0-c0">
   <path id="path301" fill="#000" d="m49,39l490,0l0,219l-490,0l0,-219z"/>
  </clipPath>
 </defs>
 <g>
  <title>Layer 1</title>
  <rect fill="none" id="0" y="0" x="0" height="307" width="578"/>
  <g id="g299">
   <path id="path3" stroke="#E0E6F1" fill="none" d="m50,257.5l488,0"/>
   <path id="path5" stroke="#E0E6F1" fill="none" d="m50,239.5l488,0"/>
   <path id="path7" stroke="#E0E6F1" fill="none" d="m50,203.5l488,0"/>
   <path id="path9" stroke="#E0E6F1" fill="none" d="m50,167.5l488,0"/>
   <path id="path11" stroke="#E0E6F1" fill="none" d="m50,130.5l488,0"/>
   <path id="path13" stroke="#E0E6F1" fill="none" d="m50,94.5l488,0"/>
   <path id="path15" stroke="#E0E6F1" fill="none" d="m50,58.5l488,0"/>
   <path id="path17" stroke="#E0E6F1" fill="none" d="m50,40.5l488,0"/>
   <path id="path19" stroke="#F4F7FD" fill="none" d="m50,253.5l488,0"/>
   <path id="path21" stroke="#F4F7FD" fill="none" d="m50,246.5l488,0"/>
   <path id="path23" stroke="#F4F7FD" fill="none" d="m50,232.5l488,0"/>
   <path id="path25" stroke="#F4F7FD" fill="none" d="m50,224.5l488,0"/>
   <path id="path27" stroke="#F4F7FD" fill="none" d="m50,217.5l488,0"/>
   <path id="path29" stroke="#F4F7FD" fill="none" d="m50,210.5l488,0"/>
   <path id="path31" stroke="#F4F7FD" fill="none" d="m50,195.5l488,0"/>
   <path id="path33" stroke="#F4F7FD" fill="none" d="m50,188.5l488,0"/>
   <path id="path35" stroke="#F4F7FD" fill="none" d="m50,181.5l488,0"/>
   <path id="path37" stroke="#F4F7FD" fill="none" d="m50,174.5l488,0"/>
   <path id="path39" stroke="#F4F7FD" fill="none" d="m50,159.5l488,0"/>
   <path id="path41" stroke="#F4F7FD" fill="none" d="m50,152.5l488,0"/>
   <path id="path43" stroke="#F4F7FD" fill="none" d="m50,145.5l488,0"/>
   <path id="path45" stroke="#F4F7FD" fill="none" d="m50,138.5l488,0"/>
   <path id="path47" stroke="#F4F7FD" fill="none" d="m50,123.5l488,0"/>
   <path id="path49" stroke="#F4F7FD" fill="none" d="m50,116.5l488,0"/>
   <path id="path51" stroke="#F4F7FD" fill="none" d="m50,109.5l488,0"/>
   <path id="path53" stroke="#F4F7FD" fill="none" d="m50,101.5l488,0"/>
   <path id="path55" stroke="#F4F7FD" fill="none" d="m50,87.5l488,0"/>
   <path id="path57" stroke="#F4F7FD" fill="none" d="m50,80.5l488,0"/>
   <path id="path59" stroke="#F4F7FD" fill="none" d="m50,73.5l488,0"/>
   <path id="path61" stroke="#F4F7FD" fill="none" d="m50,65.5l488,0"/>
   <path id="path63" stroke="#F4F7FD" fill="none" d="m50,51.5l488,0"/>
   <path id="path65" stroke="#F4F7FD" fill="none" d="m50,44.5l488,0"/>
   <path id="path67" stroke="#E0E6F1" fill="none" d="m50.5,40l0,217"/>
   <path id="path69" stroke="#E0E6F1" fill="none" d="m127.5,40l0,217"/>
   <path id="path71" stroke="#E0E6F1" fill="none" d="m208.5,40l0,217"/>
   <path id="path73" stroke="#E0E6F1" fill="none" d="m289.5,40l0,217"/>
   <path id="path75" stroke="#E0E6F1" fill="none" d="m371.5,40l0,217"/>
   <path id="path77" stroke="#E0E6F1" fill="none" d="m452.5,40l0,217"/>
   <path id="path79" stroke="#E0E6F1" fill="none" d="m533.5,40l0,217"/>
   <path id="path81" stroke="#E0E6F1" fill="none" d="m538.5,40l0,217"/>
   <path id="path83" stroke="#F4F7FD" fill="none" d="m62.5,40l0,217"/>
   <path id="path85" stroke="#F4F7FD" fill="none" d="m78.5,40l0,217"/>
   <path id="path87" stroke="#F4F7FD" fill="none" d="m94.5,40l0,217"/>
   <path id="path89" stroke="#F4F7FD" fill="none" d="m110.5,40l0,217"/>
   <path id="path91" stroke="#F4F7FD" fill="none" d="m143.5,40l0,217"/>
   <path id="path93" stroke="#F4F7FD" fill="none" d="m159.5,40l0,217"/>
   <path id="path95" stroke="#F4F7FD" fill="none" d="m175.5,40l0,217"/>
   <path id="path97" stroke="#F4F7FD" fill="none" d="m192.5,40l0,217"/>
   <path id="path99" stroke="#F4F7FD" fill="none" d="m224.5,40l0,217"/>
   <path id="path101" stroke="#F4F7FD" fill="none" d="m240.5,40l0,217"/>
   <path id="path103" stroke="#F4F7FD" fill="none" d="m257.5,40l0,217"/>
   <path id="path105" stroke="#F4F7FD" fill="none" d="m273.5,40l0,217"/>
   <path id="path107" stroke="#F4F7FD" fill="none" d="m306.5,40l0,217"/>
   <path id="path109" stroke="#F4F7FD" fill="none" d="m322.5,40l0,217"/>
   <path id="path111" stroke="#F4F7FD" fill="none" d="m338.5,40l0,217"/>
   <path id="path113" stroke="#F4F7FD" fill="none" d="m354.5,40l0,217"/>
   <path id="path115" stroke="#F4F7FD" fill="none" d="m387.5,40l0,217"/>
   <path id="path117" stroke="#F4F7FD" fill="none" d="m403.5,40l0,217"/>
   <path id="path119" stroke="#F4F7FD" fill="none" d="m419.5,40l0,217"/>
   <path id="path121" stroke="#F4F7FD" fill="none" d="m436.5,40l0,217"/>
   <path id="path123" stroke="#F4F7FD" fill="none" d="m468.5,40l0,217"/>
   <path id="path125" stroke="#F4F7FD" fill="none" d="m484.5,40l0,217"/>
   <path id="path127" stroke="#F4F7FD" fill="none" d="m501.5,40l0,217"/>
   <path id="path129" stroke="#F4F7FD" fill="none" d="m517.5,40l0,217"/>
   <path id="path131" stroke-linecap="round" stroke="#6E7079" fill="none" d="m208.5,257l0,-217"/>
   <text x="208.1933" font-family="Microsoft YaHei" font-size="12px" id="text133" fill="#6E7079" y="19" text-anchor="middle" dominant-baseline="central">y</text>
   <path id="path135" stroke-linecap="round" stroke="#6E7079" fill="none" d="m50,239.5l488,0"/>
   <text x="553" y="239.1337" font-family="Microsoft YaHei" font-size="12px" id="text137" fill="#6E7079" text-anchor="start" dominant-baseline="central">x</text>
   <path id="path139" stroke="#6E7079" fill="none" d="m208.1933,257.5l-5,0"/>
   <path id="path141" stroke="#6E7079" fill="none" d="m208.1933,239.5l-5,0"/>
   <path id="path143" stroke="#6E7079" fill="none" d="m208.1933,203.5l-5,0"/>
   <path id="path145" stroke="#6E7079" fill="none" d="m208.1933,167.5l-5,0"/>
   <path id="path147" stroke="#6E7079" fill="none" d="m208.1933,130.5l-5,0"/>
   <path id="path149" stroke="#6E7079" fill="none" d="m208.1933,94.5l-5,0"/>
   <path id="path151" stroke="#6E7079" fill="none" d="m208.1933,58.5l-5,0"/>
   <path id="path153" stroke="#6E7079" fill="none" d="m208.1933,40.5l-5,0"/>
   <path id="path155" stroke="#6E7079" fill="none" d="m208.1933,253.5l-3,0"/>
   <path id="path157" stroke="#6E7079" fill="none" d="m208.1933,246.5l-3,0"/>
   <path id="path159" stroke="#6E7079" fill="none" d="m208.1933,232.5l-3,0"/>
   <path id="path161" stroke="#6E7079" fill="none" d="m208.1933,224.5l-3,0"/>
   <path id="path163" stroke="#6E7079" fill="none" d="m208.1933,217.5l-3,0"/>
   <path id="path165" stroke="#6E7079" fill="none" d="m208.1933,210.5l-3,0"/>
   <path id="path167" stroke="#6E7079" fill="none" d="m208.1933,195.5l-3,0"/>
   <path id="path169" stroke="#6E7079" fill="none" d="m208.1933,188.5l-3,0"/>
   <path id="path171" stroke="#6E7079" fill="none" d="m208.1933,181.5l-3,0"/>
   <path id="path173" stroke="#6E7079" fill="none" d="m208.1933,174.5l-3,0"/>
   <path id="path175" stroke="#6E7079" fill="none" d="m208.1933,159.5l-3,0"/>
   <path id="path177" stroke="#6E7079" fill="none" d="m208.1933,152.5l-3,0"/>
   <path id="path179" stroke="#6E7079" fill="none" d="m208.1933,145.5l-3,0"/>
   <path id="path181" stroke="#6E7079" fill="none" d="m208.1933,138.5l-3,0"/>
   <path id="path183" stroke="#6E7079" fill="none" d="m208.1933,123.5l-3,0"/>
   <path id="path185" stroke="#6E7079" fill="none" d="m208.1933,116.5l-3,0"/>
   <path id="path187" stroke="#6E7079" fill="none" d="m208.1933,109.5l-3,0"/>
   <path id="path189" stroke="#6E7079" fill="none" d="m208.1933,101.5l-3,0"/>
   <path id="path191" stroke="#6E7079" fill="none" d="m208.1933,87.5l-3,0"/>
   <path id="path193" stroke="#6E7079" fill="none" d="m208.1933,80.5l-3,0"/>
   <path id="path195" stroke="#6E7079" fill="none" d="m208.1933,73.5l-3,0"/>
   <path id="path197" stroke="#6E7079" fill="none" d="m208.1933,65.5l-3,0"/>
   <path id="path199" stroke="#6E7079" fill="none" d="m208.1933,51.5l-3,0"/>
   <path id="path201" stroke="#6E7079" fill="none" d="m208.1933,44.5l-3,0"/>
   <path id="path203" stroke="#6E7079" fill="none" d="m50.5,239.1337l0,5"/>
   <path id="path205" stroke="#6E7079" fill="none" d="m127.5,239.1337l0,5"/>
   <path id="path207" stroke="#6E7079" fill="none" d="m208.5,239.1337l0,5"/>
   <path id="path209" stroke="#6E7079" fill="none" d="m289.5,239.1337l0,5"/>
   <path id="path211" stroke="#6E7079" fill="none" d="m371.5,239.1337l0,5"/>
   <path id="path213" stroke="#6E7079" fill="none" d="m452.5,239.1337l0,5"/>
   <path id="path215" stroke="#6E7079" fill="none" d="m533.5,239.1337l0,5"/>
   <path id="path217" stroke="#6E7079" fill="none" d="m62.5,239.1337l0,3"/>
   <path id="path219" stroke="#6E7079" fill="none" d="m78.5,239.1337l0,3"/>
   <path id="path221" stroke="#6E7079" fill="none" d="m94.5,239.1337l0,3"/>
   <path id="path223" stroke="#6E7079" fill="none" d="m110.5,239.1337l0,3"/>
   <path id="path225" stroke="#6E7079" fill="none" d="m143.5,239.1337l0,3"/>
   <path id="path227" stroke="#6E7079" fill="none" d="m159.5,239.1337l0,3"/>
   <path id="path229" stroke="#6E7079" fill="none" d="m175.5,239.1337l0,3"/>
   <path id="path231" stroke="#6E7079" fill="none" d="m192.5,239.1337l0,3"/>
   <path id="path233" stroke="#6E7079" fill="none" d="m224.5,239.1337l0,3"/>
   <path id="path235" stroke="#6E7079" fill="none" d="m240.5,239.1337l0,3"/>
   <path id="path237" stroke="#6E7079" fill="none" d="m257.5,239.1337l0,3"/>
   <path id="path239" stroke="#6E7079" fill="none" d="m273.5,239.1337l0,3"/>
   <path id="path241" stroke="#6E7079" fill="none" d="m306.5,239.1337l0,3"/>
   <path id="path243" stroke="#6E7079" fill="none" d="m322.5,239.1337l0,3"/>
   <path id="path245" stroke="#6E7079" fill="none" d="m338.5,239.1337l0,3"/>
   <path id="path247" stroke="#6E7079" fill="none" d="m354.5,239.1337l0,3"/>
   <path id="path249" stroke="#6E7079" fill="none" d="m387.5,239.1337l0,3"/>
   <path id="path251" stroke="#6E7079" fill="none" d="m403.5,239.1337l0,3"/>
   <path id="path253" stroke="#6E7079" fill="none" d="m419.5,239.1337l0,3"/>
   <path id="path255" stroke="#6E7079" fill="none" d="m436.5,239.1337l0,3"/>
   <path id="path257" stroke="#6E7079" fill="none" d="m468.5,239.1337l0,3"/>
   <path id="path259" stroke="#6E7079" fill="none" d="m484.5,239.1337l0,3"/>
   <path id="path261" stroke="#6E7079" fill="none" d="m501.5,239.1337l0,3"/>
   <path id="path263" stroke="#6E7079" fill="none" d="m517.5,239.1337l0,3"/>
   <text x="42" y="257" font-family="Microsoft YaHei" font-size="12px" id="text265" fill="#6E7079" text-anchor="end" dominant-baseline="central">-2.47</text>
   <text x="42" y="239.1337" font-family="Microsoft YaHei" font-size="12px" id="text267" fill="#6E7079" text-anchor="end" dominant-baseline="central">0</text>
   <text x="42" y="202.967" font-family="Microsoft YaHei" font-size="12px" id="text269" fill="#6E7079" text-anchor="end" dominant-baseline="central">5</text>
   <text x="42" y="166.80029" font-family="Microsoft YaHei" font-size="12px" id="text271" fill="#6E7079" text-anchor="end" dominant-baseline="central">10</text>
   <text x="42" y="130.6337" font-family="Microsoft YaHei" font-size="12px" id="text273" fill="#6E7079" text-anchor="end" dominant-baseline="central">15</text>
   <text x="42" y="94.467" font-family="Microsoft YaHei" font-size="12px" id="text275" fill="#6E7079" text-anchor="end" dominant-baseline="central">20</text>
   <text x="42" y="58.3003" font-family="Microsoft YaHei" font-size="12px" id="text277" fill="#6E7079" text-anchor="end" dominant-baseline="central">25</text>
   <text x="42" y="40" font-family="Microsoft YaHei" font-size="12px" id="text279" fill="#6E7079" text-anchor="end" dominant-baseline="central">27.53</text>
   <text x="50" font-family="Microsoft YaHei" font-size="12px" id="text281" fill="#6E7079" y="271" text-anchor="middle" dominant-baseline="central">-19.45</text>
   <text x="126.86" font-family="Microsoft YaHei" font-size="12px" id="text283" fill="#6E7079" y="271" text-anchor="middle" dominant-baseline="central">-10</text>
   <text x="208.1933" font-family="Microsoft YaHei" font-size="12px" id="text285" fill="#6E7079" y="271" text-anchor="middle" dominant-baseline="central">0</text>
   <text x="289.5267" font-family="Microsoft YaHei" font-size="12px" id="text287" fill="#6E7079" y="271" text-anchor="middle" dominant-baseline="central">10</text>
   <text x="370.85999" font-family="Microsoft YaHei" font-size="12px" id="text289" fill="#6E7079" y="271" text-anchor="middle" dominant-baseline="central">20</text>
   <text x="452.1933" font-family="Microsoft YaHei" font-size="12px" id="text291" fill="#6E7079" y="271" text-anchor="middle" dominant-baseline="central">30</text>
   <text x="533.52667" font-family="Microsoft YaHei" font-size="12px" id="text293" fill="#6E7079" y="271" text-anchor="middle" dominant-baseline="central">40</text>
   <g id="g297" clip-path="url(#zr0-c0)">
    <path id="path295" stroke-linejoin="bevel" stroke-width="2" stroke="#5470c6" fill="none" d="m-1418.4734,79.9556l0.8134,-1.6116l0.8133,-1.5295l0.8134,-1.4468l0.8133,-1.3635l0.8134,-1.2796l0.8132,-1.1952l0.8134,-1.1102l0.8133,-1.0251l0.8134,-0.9395l0.8133,-0.8539l0.8134,-0.7679l0.8132,-0.6821l0.8134,-0.5961l0.8133,-0.5103l0.8134,-0.4246l0.8133,-0.3391l0.8134,-0.254l0.8132,-0.1693l0.8134,-0.0849l0.8133,-0.0011l0.8134,0.0822l0.8133,0.1647l0.8133,0.2465l0.8133,0.3275l0.8134,0.4078l0.8133,0.4869l0.8134,0.5652l0.8133,0.6423l0.8133,0.7183l0.8133,0.7932l0.8134,0.8667l0.8133,0.939l0.8134,1.0099l0.8134,1.0792l0.8132,1.1472l0.8133,1.2136l0.8134,1.2783l0.8133,1.3414l0.8134,1.4028l0.8134,1.4625l0.8132,1.5202l0.8133,1.5762l0.8134,1.6302l0.8134,1.6824l0.8133,1.7325l0.8132,1.7805l0.8134,1.8266l0.8134,1.8704l0.8133,1.9123l0.8134,1.9519l0.8133,1.9893l0.8132,2.0245l0.8134,2.0574l0.8134,2.0881l0.8133,2.1164l0.8134,2.1426l0.8133,2.1662l0.8133,2.1876l0.8133,2.2066l0.8134,2.2233l0.8133,2.2374l0.8134,2.2494l0.8133,2.2588l0.8133,2.2659l0.8133,2.2706l0.8134,2.2729l0.8133,2.2728l0.8134,2.2702l0.8132,2.2655l0.8134,2.2582l0.8133,2.2486l0.8134,2.2367l0.8133,2.2225l0.8134,2.2059l0.8132,2.1872l0.8134,2.1661l0.8133,2.1428l0.8134,2.1173l0.8133,2.0896l0.8134,2.0599l0.8132,2.028l0.8134,1.994l0.8133,1.958l0.8134,1.92l0.8133,1.88l0.8134,1.8382l0.8132,1.7945l0.8134,1.7489l0.8133,1.7016l0.8134,1.6526l0.8133,1.6019l0.8134,1.5495l0.8132,1.4957l0.8134,1.4403l0.8133,1.3834l0.8134,1.3253l0.8133,1.2656l0.8133,1.2048l0.8133,1.1427l0.8134,1.0796l0.8133,1.0152l0.8134,0.95l0.8133,0.8837l0.8133,0.8166l0.8133,0.7486l0.8134,0.6799l0.8133,0.6106l0.8134,0.5405l0.8134,0.47l0.8132,0.3989l0.8133,0.3276l0.8134,0.2558l0.8133,0.1839l0.8134,0.1117l0.8134,0.0393l0.8132,-0.0329l0.8133,-0.1053l0.8134,-0.1774l0.8134,-0.2494l0.8133,-0.3213l0.8132,-0.3926l0.8134,-0.4637l0.8134,-0.5343l0.8133,-0.6043l0.8134,-0.6738l0.8133,-0.7425l0.8132,-0.8106l0.8134,-0.8778l0.8134,-0.9441l0.8133,-1.0095l0.8134,-1.0739l0.8133,-1.1372l0.8133,-1.1993l0.8133,-1.2603l0.8134,-1.32l0.8133,-1.3783l0.8134,-1.4353l0.8133,-1.4908l0.8133,-1.5448l0.8133,-1.5973l0.8134,-1.6482l0.8133,-1.6973l0.8134,-1.7448l0.8132,-1.7905l0.8134,-1.8344l0.8133,-1.8764l0.8134,-1.9165l0.8133,-1.9547l0.8134,-1.9909l0.8132,-2.025l0.8134,-2.0572l0.8133,-2.0871l0.8134,-2.1149l0.8133,-2.1407l0.8134,-2.1641l0.8132,-2.1853l0.8134,-2.2044l0.8133,-2.2211l0.8134,-2.2356l0.8133,-2.2476l0.8134,-2.2575l0.8132,-2.2648l0.8134,-2.27l0.8133,-2.2726l0.8134,-2.273l0.8133,-2.2708l0.8134,-2.2665l0.8132,-2.2595l0.8134,-2.2503l0.8133,-2.2387l0.8134,-2.2246l0.8133,-2.2082l0.8133,-2.1894l0.8133,-2.1682l0.8134,-2.1447l0.8133,-2.1189l0.8134,-2.0907l0.8133,-2.0602l0.8133,-2.0275l0.8133,-1.9925l0.8134,-1.9553l0.8133,-1.9159l0.8134,-1.8743l0.8134,-1.8305l0.8132,-1.7847l0.8133,-1.7368l0.8134,-1.6869l0.8133,-1.635l0.8134,-1.581l0.8134,-1.5253l0.8132,-1.4677l0.8133,-1.4081l0.8134,-1.347l0.8134,-1.284l0.8133,-1.2194l0.8132,-1.1531l0.8134,-1.0854l0.8134,-1.016l0.8133,-0.9454l0.8134,-0.8732l0.8133,-0.7997l0.8132,-0.7251l0.8134,-0.6491l0.8134,-0.572l0.8133,-0.494l0.8134,-0.4148l0.8133,-0.3347l0.8133,-0.2537l0.8133,-0.172l0.8134,-0.0895l0.8133,-0.0064l0.8134,0.0775l0.8133,0.1617l0.8133,0.2465l0.8133,0.3315l0.8134,0.4171l0.8133,0.5026l0.8134,0.5885l0.8132,0.6744l0.8134,0.7604l0.8133,0.8462l0.8134,0.9319l0.8133,1.0175l0.8134,1.1027l0.8132,1.1876l0.8134,1.2721l0.8133,1.3561l0.8134,1.4394l0.8133,1.5223l0.8134,1.6043l0.8132,1.6855l0.8134,1.7659l0.8133,1.8454l0.8134,1.9239l0.8133,2.0014l0.8134,2.0776l0.8132,2.1527l0.8134,2.2266l0.8133,2.2991l0.8134,2.3702l0.8133,2.4399l0.8134,2.5081l0.8132,2.5746l0.8134,2.6397l0.8133,2.703l0.8134,2.7645l0.8133,2.8243l0.8133,2.8823l0.8133,2.9383l0.8134,2.9924l0.8133,3.0445l0.8134,3.0945l0.8133,3.1426l0.8133,3.1885l0.8133,3.2322l0.8134,3.2737l0.8133,3.313l0.8134,3.35l0.8134,3.3848l0.8132,3.4172l0.8133,3.4472l0.8134,3.4748l0.8133,3.5001l0.8134,3.5229l0.8134,3.5433l0.8132,3.5612l0.8133,3.5767l0.8134,3.5895l0.8134,3.5999l0.8133,3.6079l0.8132,3.6132l0.8134,3.6161l0.8134,3.6164l0.8133,3.6141l0.8134,3.6095l0.8133,3.6021l0.8132,3.5924l0.8134,3.58l0.8134,3.5653l0.8133,3.5479l0.8134,3.5282l0.8133,3.506l0.8133,3.4814l0.8133,3.4543l0.8134,3.4248l0.8133,3.393l0.8134,3.3589l0.8133,3.3224l0.8133,3.2837l0.8133,3.2427l0.8134,3.1995l0.8133,3.1541l0.8134,3.1067l0.8132,3.0571l0.8134,3.0055l0.8133,2.9519l0.8134,2.8963l0.8133,2.8389l0.8134,2.7795l0.8132,2.7185l0.8134,2.6555l0.8133,2.591l0.8134,2.5247l0.8133,2.457l0.8134,2.3876l0.8132,2.3169l0.8134,2.2447l0.8133,2.1711l0.8134,2.0964l0.8133,2.0204l0.8134,1.9432l0.8132,1.865l0.8134,1.7857l0.8133,1.7056l0.8134,1.6244l0.8133,1.5427l0.8134,1.4601l0.8132,1.3768l0.8134,1.293l0.8133,1.2086l0.8134,1.1238l0.8133,1.0387l0.8133,0.9531l0.8133,0.8675l0.8134,0.7817l0.8133,0.6957l0.8134,0.6098l0.8133,0.5239l0.8133,0.4383l0.8133,0.3527l0.8134,0.2676l0.8133,0.1827l0.8134,0.0983l0.8134,0.0144l0.8132,-0.0689l0.8133,-0.1516l0.8134,-0.2336l0.8133,-0.3147l0.8134,-0.395l0.8134,-0.4744l0.8132,-0.5528l0.8133,-0.6301l0.8134,-0.7063l0.8134,-0.7813l0.8133,-0.8551l0.8132,-0.9276l0.8134,-0.9987l0.8134,-1.0683l0.8133,-1.1364l0.8134,-1.2031l0.8133,-1.2682l0.8132,-1.3314l0.8134,-1.3932l0.8134,-1.453l0.8133,-1.5112l0.8134,-1.5674l0.8133,-1.6218l0.8133,-1.6741l0.8133,-1.7247l0.8134,-1.773l0.8133,-1.8194l0.8134,-1.8636l0.8133,-1.9057l0.8133,-1.9458l0.8133,-1.9834l0.8134,-2.0191l0.8133,-2.0523l0.8134,-2.0834l0.8132,-2.1121l0.8134,-2.1385l0.8133,-2.1626l0.8134,-2.1844l0.8133,-2.2037l0.8134,-2.2208l0.8132,-2.2353l0.8134,-2.2477l0.8133,-2.2574l0.8134,-2.265l0.8133,-2.27l0.8134,-2.2727l0.8132,-2.2729l0.8134,-2.2708l0.8133,-2.2664l0.8134,-2.2595l0.8133,-2.2503l0.8134,-2.2387l0.8132,-2.225l0.8134,-2.2087l0.8133,-2.1903l0.8134,-2.1696l0.8133,-2.1466l0.8134,-2.1216l0.8132,-2.0942l0.8134,-2.0647l0.8133,-2.0332l0.8134,-1.9996l0.8133,-1.9638l0.8133,-1.9262l0.8133,-1.8866l0.8134,-1.8449l0.8133,-1.8016l0.8134,-1.7563l0.8133,-1.7093l0.8133,-1.6605l0.8133,-1.61l0.8134,-1.558l0.8133,-1.5044l0.8134,-1.4492l0.8134,-1.3926l0.8132,-1.3346l0.8133,-1.2752l0.8134,-1.2145l0.8133,-1.1527l0.8134,-1.0897l0.8134,-1.0256l0.8132,-0.9604l0.8133,-0.8944l0.8134,-0.8273l0.8134,-0.7595l0.8133,-0.6909l0.8132,-0.6216l0.8134,-0.5517l0.8134,-0.4813l0.8133,-0.4103l0.8134,-0.339l0.8133,-0.2672l0.8132,-0.1953l0.8134,-0.1232l0.8134,-0.0509l0.8133,0.0214l0.8134,0.0938l0.8133,0.1659l0.8133,0.238l0.8133,0.3098l0.8134,0.3813l0.8133,0.4524l0.8134,0.5231l0.8133,0.5932l0.8133,0.6628l0.8133,0.7316l0.8134,0.7998l0.8133,0.8671l0.8134,0.9337l0.8132,0.9991l0.8134,1.0637l0.8133,1.1272l0.8134,1.1895l0.8133,1.2507l0.8134,1.3105l0.8132,1.3691l0.8134,1.4263l0.8133,1.4821l0.8134,1.5363l0.8133,1.5891l0.8134,1.6402l0.8132,1.6896l0.8134,1.7373l0.8133,1.7834l0.8134,1.8275l0.8133,1.8698l0.8134,1.9103l0.8132,1.9487l0.8134,1.9853l0.8133,2.0197l0.8134,2.0522l0.8133,2.0824l0.8134,2.1107l0.8132,2.1367l0.8134,2.1605l0.8133,2.1822l0.8134,2.2015l0.8133,2.2185l0.8133,2.2334l0.8133,2.2459l0.8134,2.2561l0.8133,2.2638l0.8134,2.2693l0.8133,2.2724l0.8133,2.273l0.8133,2.2714l0.8134,2.2673l0.8133,2.2608l0.8134,2.2519l0.8134,2.2407l0.8132,2.227l0.8133,2.211l0.8134,2.1925l0.8133,2.1718l0.8133,2.1486l0.8134,2.1231l0.8134,2.0954l0.8132,2.0652l0.8134,2.0329l0.8134,1.9982l0.8132,1.9614l0.8134,1.9223l0.8134,1.881l0.8133,1.8377l0.8133,1.7921l0.8134,1.7446l0.8133,1.695l0.8133,1.6433l0.8134,1.5898l0.8133,1.5343l0.8133,1.477l0.8133,1.4177l0.8134,1.3568l0.8133,1.2942l0.8133,1.2297l0.8134,1.1638l0.8133,1.0963l0.8133,1.0272l0.8134,0.9567l0.8133,0.8848l0.8133,0.8115l0.8134,0.7371l0.8133,0.6612l0.8133,0.5844l0.8134,0.5065l0.8133,0.4274l0.8133,0.3476l0.8134,0.2667l0.8133,0.185l0.8133,0.1027l0.8134,0.0196l0.8133,-0.064l0.8133,-0.1483l0.8134,-0.2329l0.8133,-0.318l0.8133,-0.4034l0.8134,-0.489l0.8133,-0.5748l0.8133,-0.6608l0.8134,-0.7466l0.8133,-0.8326l0.8133,-0.9183l0.8134,-1.0038l0.8133,-1.0892l0.8133,-1.1741l0.8134,-1.2587l0.8133,-1.3427l0.8133,-1.4262l0.8134,-1.5091l0.8133,-1.5913l0.8133,-1.6726l0.8134,-1.7532l0.8133,-1.8328l0.8133,-1.9115l0.8134,-1.9891l0.8133,-2.0655l0.8133,-2.1409l0.8134,-2.2149l0.8133,-2.2876l0.8133,-2.359l0.8134,-2.4289l0.8133,-2.4973l0.8133,-2.5642l0.8133,-2.6294l0.8134,-2.693l0.8133,-2.7549l0.8133,-2.8149l0.8134,-2.8731l0.8133,-2.9296l0.8133,-2.9838l0.8134,-3.0364l0.8134,-3.0867l0.8132,-3.1351l0.8134,-3.1813l0.8134,-3.2254l0.8132,-3.2672l0.8134,-3.3069l0.8134,-3.3443l0.8133,-3.3794l0.8133,-3.4121l0.8134,-3.4426l0.8133,-3.4706l0.8133,-3.4963l0.8134,-3.5194l0.8133,-3.5403l0.8133,-3.5585l0.8133,-3.5743l0.8134,-3.5876l0.8133,-3.5985l0.8133,-3.6068l0.8134,-3.6125l0.8133,-3.6158l0.8133,-3.6165l0.8134,-3.6147l0.8133,-3.6103l0.8133,-3.6035l0.8134,-3.5941l0.8133,-3.5822l0.8133,-3.5677l0.8134,-3.5509l0.8133,-3.5315l0.8133,-3.5098l0.8134,-3.4854l0.8133,-3.4587l0.8133,-3.4297l0.8134,-3.3983l0.8133,-3.3644l0.8133,-3.3284l0.8134,-3.29l0.8133,-3.2493l0.8133,-3.2066l0.8134,-3.1615l0.8133,-3.1144l0.8133,-3.0651l0.8134,-3.0139l0.8133,-2.9606l0.8133,-2.9053l0.8134,-2.8481l0.8133,-2.7891l0.8133,-2.7283l0.8134,-2.6656l0.8133,-2.6014l0.8133,-2.5354l0.8134,-2.4679l0.8133,-2.3987l0.8133,-2.3283l0.8134,-2.2562l0.8133,-2.183l0.8133,-2.1084l0.8134,-2.0325l0.8133,-1.9556l0.8133,-1.8775l0.8134,-1.7984l0.8133,-1.7184l0.8133,-1.6375l0.8134,-1.5557l0.8133,-1.4733l0.8133,-1.3901l0.8133,-1.3064l0.8134,-1.2221l0.8133,-1.1373l0.8133,-1.0522l0.8134,-0.9669l0.8133,-0.8811l0.8133,-0.7953l0.8134,-0.7094l0.8134,-0.6235l0.8132,-0.5376l0.8134,-0.4519l0.8134,-0.3664l0.8132,-0.2811l0.8134,-0.1961l0.8134,-0.1118l0.8133,-0.0277l0.8133,0.0557l0.8134,0.1385l0.8133,0.2205l0.8133,0.3019l0.8134,0.3822l0.8133,0.4619l0.8133,0.5403l0.8133,0.6179l0.8134,0.6942l0.8133,0.7695l0.8133,0.8435l0.8134,0.9161l0.8133,0.9874l0.8133,1.0573l0.8134,1.1257l0.8133,1.1926l0.8133,1.2579l0.8134,1.3215l0.8133,1.3834l0.8133,1.4437l0.8134,1.502l0.8133,1.5586l0.8133,1.6132l0.8134,1.666l0.8133,1.7167l0.8133,1.7654l0.8134,1.8122l0.8133,1.8567l0.8133,1.8992l0.8134,1.9395l0.8133,1.9776l0.8133,2.0135l0.8134,2.0472l0.8133,2.0786l0.8133,2.1076l0.8134,2.1345l0.8133,2.1589l0.8133,2.1811l0.8134,2.2008l0.8133,2.2182l0.8133,2.2332l0.8134,2.2459l0.8133,2.2561l0.8133,2.2639l0.8134,2.2693l0.8133,2.2724l0.8133,2.2731l0.8134,2.2713l0.8133,2.2672l0.8133,2.2608l0.8134,2.2519l0.8133,2.2407l0.8133,2.2273l0.8134,2.2115l0.8133,2.1934l0.8133,2.173l0.8134,2.1505l0.8133,2.1256l0.8133,2.0988l0.8133,2.0696l0.8134,2.0383l0.8133,2.005l0.8133,1.9697l0.8134,1.9323l0.8133,1.893l0.8133,1.8518l0.8134,1.8086l0.8134,1.7636l0.8132,1.7169l0.8134,1.6683l0.8134,1.6182l0.8132,1.5664l0.8134,1.5131l0.8134,1.458l0.8133,1.4017l0.8133,1.3439l0.8134,1.2848l0.8133,1.2243l0.8133,1.1626l0.8134,1.0998l0.8133,1.0359l0.8133,0.9709l0.8133,0.9049l0.8134,0.838l0.8133,0.7704l0.8133,0.7019l0.8134,0.6327l0.8133,0.5629l0.8133,0.4925l0.8134,0.4216l0.8133,0.3503l0.8133,0.2788l0.8134,0.2068l0.8133,0.1346l0.8133,0.0624l0.8134,-0.0099l0.8133,-0.0822l0.8133,-0.1545l0.8134,-0.2265l0.8133,-0.2984l0.8133,-0.3699l0.8134,-0.4411l0.8133,-0.5119l0.8133,-0.5821l0.8134,-0.6517l0.8133,-0.7207l0.8133,-0.789l0.8134,-0.8565l0.8133,-0.923l0.8133,-0.9888l0.8134,-1.0535l0.8133,-1.1172l0.8133,-1.1796l0.8134,-1.241l0.8133,-1.3011l0.8133,-1.3599l0.8134,-1.4173l0.8133,-1.4733l0.8133,-1.5278l0.8134,-1.5807l0.8133,-1.6322l0.8133,-1.6818l0.8134,-1.7299l0.8133,-1.7761l0.8133,-1.8206l0.8134,-1.8633l0.8133,-1.9039l0.8133,-1.9428l0.8134,-1.9796l0.8133,-2.0143l0.8133,-2.0472l0.8134,-2.0777l0.8133,-2.1064l0.8133,-2.1327l0.8133,-2.1568l0.8134,-2.1789l0.8133,-2.1985l0.8133,-2.2161l0.8134,-2.2311l0.8133,-2.2441l0.8133,-2.2546l0.8134,-2.2627l0.8134,-2.2686l0.8132,-2.272l0.8134,-2.2732l0.8134,-2.2718l0.8132,-2.2681l0.8134,-2.262l0.8134,-2.2535l0.8133,-2.2426l0.8133,-2.2293l0.8134,-2.2137l0.8133,-2.1956l0.8133,-2.1753l0.8134,-2.1524l0.8133,-2.1274l0.8133,-2.0999l0.8133,-2.0702l0.8134,-2.0382l0.8133,-2.0039l0.8133,-1.9674l0.8134,-1.9286l0.8133,-1.8878l0.8133,-1.8447l0.8134,-1.7995l0.8133,-1.7523l0.8133,-1.703l0.8134,-1.6517l0.8133,-1.5985l0.8133,-1.5432l0.8134,-1.4862l0.8133,-1.4274l0.8133,-1.3666l0.8134,-1.3042l0.8133,-1.2402l0.8133,-1.1744l0.8134,-1.1071l0.8133,-1.0383l0.8133,-0.968l0.8134,-0.8963l0.8133,-0.8233l0.8133,-0.749l0.8134,-0.6734l0.8133,-0.5968l0.8133,-0.5189l0.8134,-0.4401l0.8133,-0.3603l0.8133,-0.2797l0.8134,-0.1981l0.8133,-0.1158l0.8133,-0.0329l0.8134,0.0507l0.8133,0.1348l0.8133,0.2194l0.8134,0.3045l0.8133,0.3897l0.8133,0.4754l0.8134,0.5611l0.8133,0.6471l0.8133,0.7329l0.8134,0.8189l0.8133,0.9047l0.8133,0.9902l0.8134,1.0756l0.8133,1.1606l0.8133,1.2453l0.8134,1.3293l0.8133,1.413l0.8133,1.496l0.8133,1.5782l0.8134,1.6597l0.8133,1.7404l0.8133,1.8202l0.8134,1.8991l0.8133,1.9767l0.8133,2.0535l0.8134,2.1289l0.8134,2.2032l0.8132,2.2761l0.8134,2.3478l0.8134,2.4178l0.8132,2.4866l0.8134,2.5536l0.8134,2.6192l0.8133,2.6829l0.8133,2.7452l0.8134,2.8054l0.8133,2.864l0.8133,2.9207l0.8134,2.9754l0.8133,3.0281l0.8133,3.0788l0.8133,3.1275l0.8134,3.1741l0.8133,3.2185l0.8133,3.2607l0.8134,3.3008l0.8133,3.3385l0.8133,3.3739l0.8134,3.4071l0.8133,3.4379l0.8133,3.4663l0.8134,3.4923l0.8133,3.516l0.8133,3.537l0.8134,3.5558l0.8133,3.572l0.8133,3.5857l0.8134,3.5969l0.8133,3.6056l0.8133,3.6118l0.8134,3.6154l0.8133,3.6166l0.8133,3.6151l0.8134,3.6112l0.8133,3.6047l0.8133,3.5958l0.8134,3.5842l0.8133,3.5703l0.8133,3.5537l0.8134,3.5348l0.8133,3.5133l0.8133,3.4895l0.8134,3.4632l0.8133,3.4344l0.8133,3.4034l0.8134,3.37l0.8133,3.3343l0.8133,3.2963l0.8134,3.2559l0.8133,3.2135l0.8133,3.1689l0.8134,3.122l0.8133,3.0731l0.8133,3.0222l0.8134,2.9692l0.8133,2.9142l0.8133,2.8574l0.8134,2.7986l0.8133,2.7381l0.8133,2.6758l0.8134,2.6117l0.8133,2.546l0.8133,2.4787l0.8133,2.4099l0.8134,2.3395l0.8133,2.2679l0.8133,2.1947l0.8134,2.1203l0.8133,2.0447l0.8133,1.9679l0.8134,1.8901l0.8134,1.811l0.8132,1.7312l0.8134,1.6504l0.8134,1.5689l0.8132,1.4864l0.8134,1.4034l0.8134,1.3198l0.8133,1.2355l0.8133,1.1509l0.8134,1.0658l0.8133,0.9804l0.8133,0.8948l0.8134,0.809l0.8133,0.7231l0.8133,0.6372l0.8133,0.5513l0.8134,0.4655l0.8133,0.3799l0.8133,0.2947l0.8134,0.2097l0.8133,0.1251l0.8133,0.041l0.8134,-0.0424l0.8133,-0.1253l0.8133,-0.2075l0.8134,-0.289l0.8133,-0.3695l0.8133,-0.4492l0.8134,-0.5279l0.8133,-0.6056l0.8133,-0.6822l0.8134,-0.7576l0.8133,-0.8317l0.8133,-0.9047l0.8134,-0.9761l0.8133,-1.0463l0.8133,-1.1149l0.8134,-1.1821l0.8133,-1.2475l0.8133,-1.3115l0.8134,-1.3737l0.8133,-1.4342l0.8133,-1.4929l0.8134,-1.5496l0.8133,-1.6047l0.8133,-1.6577l0.8134,-1.7088l0.8133,-1.7578l0.8133,-1.8048l0.8134,-1.8498l0.8133,-1.8926l0.8133,-1.9332l0.8134,-1.9717l0.8133,-2.0079l0.8133,-2.042l0.8134,-2.0737l0.8133,-2.1032l0.8133,-2.1304l0.8134,-2.1552l0.8133,-2.1777l0.8133,-2.1978l0.8134,-2.2156l0.8133,-2.2309l0.8133,-2.2441l0.8134,-2.2545l0.8133,-2.2629l0.8133,-2.2686l0.8133,-2.2721l0.8134,-2.2731l0.8133,-2.2718l0.8133,-2.268l0.8134,-2.262l0.8133,-2.2534l0.8133,-2.2427l0.8134,-2.2296l0.8134,-2.2141l0.8132,-2.1964l0.8134,-2.1765l0.8134,-2.1542l0.8132,-2.1298l0.8134,-2.1031l0.8134,-2.0744l0.8133,-2.0434l0.8133,-2.0105l0.8134,-1.9755l0.8133,-1.9384l0.8133,-1.8994l0.8134,-1.8584l0.8133,-1.8156l0.8133,-1.7709l0.8133,-1.7244l0.8134,-1.6762l0.8133,-1.6264l0.8133,-1.5747l0.8134,-1.5216l0.8133,-1.4669l0.8133,-1.4108l0.8134,-1.3532l0.8133,-1.2943l0.8133,-1.234l0.8134,-1.1725l0.8133,-1.1099l0.8133,-1.0461l0.8134,-0.9813l0.8133,-0.9155l0.8133,-0.8488l0.8134,-0.7812l0.8133,-0.7128l0.8133,-0.6437l0.8134,-0.5741l0.8133,-0.5038l0.8133,-0.4329l0.8134,-0.3617l0.8133,-0.2902l0.8133,-0.2183l0.8134,-0.1461l0.8133,-0.0739l0.8133,-0.0016l0.8134,0.0707l0.8133,0.1429l0.8133,0.2151l0.8134,0.2869l0.8133,0.3586l0.8133,0.4298l0.8134,0.5006l0.8133,0.571l0.8133,0.6406l0.8134,0.7098l0.8133,0.7782l0.8133,0.8458l0.8134,0.9125l0.8133,0.9784l0.8133,1.0433l0.8134,1.107l0.8133,1.1698l0.8133,1.2313l0.8134,1.2916l0.8133,1.3506l0.8133,1.4083l0.8134,1.4645l0.8133,1.5192l0.8133,1.5724l0.8133,1.6241l0.8134,1.674l0.8133,1.7223l0.8133,1.7689l0.8134,1.8137l0.8133,1.8565l0.8133,1.8976l0.8134,1.9367l0.8134,1.9739l0.8132,2.009l0.8134,2.042l0.8134,2.0731l0.8132,2.1019l0.8134,2.1286l0.8134,2.1532l0.8133,2.1755l0.8133,2.1955l0.8134,2.2134l0.8133,2.229l0.8133,2.2421l0.8134,2.2531l0.8133,2.2616l0.8133,2.2678l0.8133,2.2717l0.8134,2.2731l0.8133,2.2721l0.8133,2.2689l0.8134,2.2631l0.8133,2.255l0.8133,2.2446l0.8134,2.2316l0.8133,2.2163l0.8133,2.1987l0.8134,2.1786l0.8133,2.1562l0.8133,2.1315l0.8134,2.1045l0.8133,2.0751l0.8133,2.0434l0.8134,2.0095l0.8133,1.9734l0.8133,1.9349l0.8134,1.8945l0.8133,1.8517l0.8133,1.8069l0.8134,1.7599l0.8133,1.711l0.8133,1.66l0.8134,1.607l0.8133,1.5522l0.8133,1.4954l0.8134,1.4368l0.8133,1.3765l0.8133,1.3142l0.8134,1.2505l0.8133,1.185l0.8133,1.1179l0.8134,1.0494l0.8133,0.9793l0.8133,0.9078l0.8134,0.835l0.8133,0.7609l0.8133,0.6856l0.8134,0.609l0.8133,0.5314l0.8133,0.4527l0.8134,0.3731l0.8133,0.2926l0.8133,0.2111l0.8134,0.129l0.8133,0.0462l0.8133,-0.0374l0.8134,-0.1214l0.8133,-0.2059l0.8133,-0.2909l0.8134,-0.3761l0.8133,-0.4618l0.8133,-0.5474l0.8134,-0.6334l0.8133,-0.7192l0.8133,-0.8052l0.8134,-0.891l0.8133,-0.9767l0.8133,-1.062l0.8134,-1.1471l0.8133,-1.2318l0.8133,-1.316l0.8134,-1.3997l0.8133,-1.4828l0.8133,-1.5651l0.8134,-1.6468l0.8133,-1.7277l0.8133,-1.8076l0.8134,-1.8865l0.8133,-1.9644l0.8133,-2.0414l0.8134,-2.117l0.8133,-2.1914l0.8133,-2.2646l0.8134,-2.3364l0.8133,-2.4068l0.8133,-2.4757l0.8134,-2.5431l0.8133,-2.6088l0.8133,-2.673l0.8134,-2.7353l0.8133,-2.796l0.8133,-2.8548l0.8134,-2.9117l0.8133,-2.9668l0.8133,-3.0198l0.8134,-3.071l0.8133,-3.1199l0.8133,-3.1668l0.8134,-3.2115l0.8133,-3.2542l0.8133,-3.2945l0.8134,-3.3326l0.8133,-3.3685l0.8133,-3.402l0.8134,-3.4331l0.8133,-3.4619l0.8133,-3.4884l0.8134,-3.5123l0.8133,-3.5339l0.8133,-3.5529l0.8134,-3.5696l0.8133,-3.5837l0.8133,-3.5953l0.8134,-3.6043l0.8133,-3.611l0.8133,-3.615l0.8134,-3.6166l0.8133,-3.6155l0.8133,-3.612l0.8134,-3.606l0.8133,-3.5973l0.8133,-3.5863l0.8134,-3.5726l0.8133,-3.5565l0.8133,-3.538l0.8134,-3.5169l0.8133,-3.4934l0.8133,-3.4676l0.8134,-3.4392l0.8133,-3.4085l0.8133,-3.3754l0.8134,-3.3402l0.8133,-3.3024l0.8133,-3.2626l0.8134,-3.2204l0.8133,-3.1761l0.8133,-3.1296l0.8134,-3.0811l0.8133,-3.0304l0.8133,-2.9777l0.8134,-2.9231l0.8133,-2.8666l0.8133,-2.8081l0.8134,-2.7478l0.8133,-2.6858l0.8133,-2.6221l0.8134,-2.5566l0.8133,-2.4895l0.8133,-2.4209l0.8134,-2.3509l0.8133,-2.2793l0.8133,-2.2065l0.8134,-2.1323l0.8133,-2.0568l0.8133,-1.9802l0.8134,-1.9025l0.8133,-1.8237l0.8133,-1.744l0.8134,-1.6633l0.8133,-1.5819l0.8133,-1.4996l0.8134,-1.4167l0.8133,-1.3331l0.8133,-1.249l0.8134,-1.1643l0.8133,-1.0794l0.8133,-0.9941l0.8134,-0.9084l0.8133,-0.8227l0.8133,-0.7368l0.8134,-0.6509l0.8133,-0.5649l0.8133,-0.4792l0.8134,-0.3935l0.8133,-0.3082l0.8133,-0.2232l0.8134,-0.1386l0.8133,-0.0544l0.8133,0.0292l0.8134,0.1121l0.8133,0.1945l0.8133,0.276l0.8134,0.3568l0.8133,0.4366l0.8133,0.5154l0.8134,0.5933l0.8133,0.6701l0.8133,0.7456l0.8134,0.82l0.8133,0.8932l0.8133,0.9648l0.8134,1.0352l0.8133,1.1041l0.8133,1.1715l0.8134,1.2372l0.8133,1.3015l0.8133,1.3639l0.8134,1.4246l0.8133,1.4836l0.8133,1.5408l0.8134,1.596l0.8133,1.6494l0.8133,1.7008l0.8134,1.7501l0.8133,1.7975l0.8133,1.8428l0.8134,1.8859l0.8133,1.9268l0.8133,1.9658l0.8134,2.0023l0.8133,2.0367l0.8133,2.0688l0.8134,2.0987l0.8133,2.1261l0.8133,2.1514l0.8134,2.1743l0.8133,2.1948l0.8133,2.2129l0.8134,2.2287l0.8133,2.2421l0.8133,2.2531l0.8134,2.2616l0.8133,2.2679l0.8133,2.2717l0.8134,2.2731l0.8133,2.2721l0.8133,2.2688l0.8134,2.2631l0.8133,2.255l0.8133,2.2446l0.8134,2.2318l0.8133,2.2167l0.8133,2.1994l0.8134,2.1798l0.8133,2.1579l0.8133,2.1338l0.8134,2.1075l0.8133,2.0791l0.8133,2.0485l0.8134,2.0159l0.8133,1.9812l0.8133,1.9444l0.8134,1.9057l0.8133,1.8651l0.8133,1.8226l0.8134,1.7781l0.8133,1.732l0.8133,1.684l0.8134,1.6343l0.8133,1.5831l0.8133,1.5302l0.8134,1.4757l0.8133,1.4199l0.8133,1.3624l0.8134,1.3038l0.8133,1.2437l0.8133,1.1824l0.8134,1.1199l0.8133,1.0563l0.8133,0.9917l0.8134,0.9261l0.8133,0.8594l0.8133,0.792l0.8134,0.7238l0.8133,0.6548l0.8133,0.5852l0.8134,0.5149l0.8133,0.4443l0.8133,0.3731l0.8134,0.3016l0.8133,0.2297l0.8133,0.1577l0.8134,0.0854l0.8133,0.0131l0.8133,-0.0592l0.8134,-0.1314l0.8133,-0.2036l0.8133,-0.2756l0.8134,-0.3471l0.8133,-0.4185l0.8133,-0.4894l0.8134,-0.5598l0.8133,-0.6296l0.8133,-0.6988l0.8134,-0.7673l0.8133,-0.8351l0.8133,-0.9019l0.8134,-0.968l0.8133,-1.033l0.8133,-1.097l0.8134,-1.1598l0.8133,-1.2217l0.8133,-1.282l0.8134,-1.3413l0.8133,-1.3992l0.8133,-1.4556l0.8134,-1.5106l0.8133,-1.5641l0.8133,-1.6159l0.8134,-1.6662l0.8133,-1.7148l0.8133,-1.7616l0.8134,-1.8066l0.8133,-1.8499l0.8133,-1.8911l0.8134,-1.9307l0.8133,-1.968l0.8133,-2.0035l0.8134,-2.037l0.8133,-2.0682l0.8133,-2.0975l0.8134,-2.1245l0.8133,-2.1494l0.8133,-2.1721l0.8134,-2.1925l0.8133,-2.2107l0.8133,-2.2266l0.8134,-2.2402l0.8133,-2.2515l0.8133,-2.2604l0.8134,-2.267l0.8133,-2.2712l0.8133,-2.273l0.8134,-2.2725l0.8133,-2.2696l0.8133,-2.2642l0.8134,-2.2564l0.8133,-2.2464l0.8133,-2.2338l0.8134,-2.2189l0.8133,-2.2017l0.8133,-2.1819l0.8134,-2.16l0.8133,-2.1356l0.8133,-2.1089l0.8134,-2.08l0.8133,-2.0486l0.8133,-2.015l0.8134,-1.9793l0.8133,-1.9412l0.8133,-1.9011l0.8134,-1.8586l0.8133,-1.8142l0.8133,-1.7675l0.8134,-1.7189l0.8133,-1.6683l0.8133,-1.6156l0.8134,-1.5611l0.8133,-1.5045l0.8133,-1.4463l0.8134,-1.3862l0.8133,-1.3243l0.8133,-1.2607l0.8134,-1.1955l0.8133,-1.1287l0.8133,-1.0604l0.8134,-0.9906l0.8133,-0.9193l0.8133,-0.8467l0.8134,-0.7728l0.8133,-0.6976l0.8133,-0.6213l0.8134,-0.5438l0.8133,-0.4653l0.8133,-0.3859l0.8134,-0.3054l0.8133,-0.2242l0.8133,-0.1421l0.8134,-0.0594l0.8133,0.024l0.8133,0.108l0.8134,0.1924l0.8133,0.2773l0.8133,0.3626l0.8134,0.4481l0.8133,0.5338l0.8133,0.6196l0.8134,0.7056l0.8133,0.7916l0.8133,0.8773l0.8134,0.963l0.8133,1.0485l0.8133,1.1335l0.8134,1.2184l0.8133,1.3026l0.8133,1.3864l0.8134,1.4696l0.8133,1.5521l0.8133,1.6338l0.8134,1.7149l0.8133,1.7948l0.8133,1.8741l0.8134,1.9521l0.8133,2.0292l0.8133,2.105l0.8134,2.1796l0.8133,2.2531l0.8133,2.3251l0.8134,2.3956l0.8133,2.4649l0.8133,2.5324l0.8134,2.5985l0.8133,2.6628l0.8133,2.7255l0.8134,2.7865l0.8133,2.8455l0.8133,2.9028l0.8134,2.9582l0.8133,3.0115l0.8133,3.0629l0.8134,3.1123l0.8133,3.1594l0.8133,3.2046l0.8134,3.2475l0.8133,3.2883l0.8133,3.3267l0.8134,3.3629l0.8133,3.3968l0.8133,3.4283l0.8134,3.4575l0.8133,3.4843l0.8133,3.5087l0.8134,3.5306l0.8133,3.5501l0.8133,3.5671l0.8134,3.5816l0.8133,3.5936l0.8133,3.6031l0.8134,3.6101l0.8133,3.6145l0.8133,3.6165l0.8134,3.6159l0.8133,3.6127l0.8133,3.6071l0.8134,3.5989l0.8133,3.5881l0.8133,3.575l0.8134,3.5593l0.8133,3.5411l0.8133,3.5204l0.8134,3.4973l0.8133,3.4718l0.8133,3.4439l0.8134,3.4136l0.8133,3.3809l0.8133,3.3458l0.8134,3.3087l0.8133,3.269l0.8133,3.2273l0.8134,3.1833l0.8133,3.1372l0.8133,3.0889l0.8134,3.0386l0.8133,2.9863l0.8133,2.9319l0.8134,2.8757l0.8133,2.8176l0.8133,2.7575l0.8134,2.6958l0.8133,2.6323l0.8133,2.5671l0.8134,2.5004l0.8133,2.4319l0.8133,2.3622l0.8134,2.2908l0.8133,2.2181l0.8133,2.1442l0.8134,2.0689l0.8133,1.9925l0.8133,1.9149l0.8134,1.8364l0.8133,1.7567l0.8133,1.6763l0.8134,1.5948l0.8133,1.5128l0.8133,1.4299l0.8134,1.3465l0.8133,1.2624l0.8133,1.1779l0.8134,1.0929l0.8133,1.0077l0.8133,0.9221l0.8134,0.8363l0.8133,0.7505l0.8133,0.6646l0.8134,0.5786l0.8133,0.4928l0.8133,0.4072l0.8134,0.3218l0.8133,0.2367l0.8133,0.152l0.8134,0.0678l0.8133,-0.016l0.8133,-0.099l0.8134,-0.1814l0.8133,-0.2631l0.8133,-0.3439l0.8134,-0.424l0.8133,-0.5029l0.8133,-0.581l0.8134,-0.6579l0.8133,-0.7336l0.8133,-0.8083l0.8134,-0.8816l0.8133,-0.9535l0.8133,-1.0241l0.8134,-1.0932l0.8133,-1.1609l0.8133,-1.2269l0.8134,-1.2912l0.8133,-1.3541l0.8133,-1.4151l0.8134,-1.4744l0.8133,-1.5318l0.8133,-1.5873l0.8134,-1.641l0.8133,-1.6928l0.8133,-1.7424l0.8134,-1.7901l0.8133,-1.8356l0.8133,-1.8792l0.8134,-1.9205l0.8133,-1.9597l0.8133,-1.9966l0.8134,-2.0314l0.8133,-2.0638l0.8133,-2.0941l0.8134,-2.122l0.8133,-2.1475l0.8133,-2.1708l0.8134,-2.1917l0.8133,-2.2101l0.8133,-2.2264l0.8134,-2.2401l0.8133,-2.2515l0.8133,-2.2605l0.8134,-2.267l0.8133,-2.2713l0.8133,-2.273l0.8134,-2.2724l0.8133,-2.2695l0.8133,-2.2642l0.8134,-2.2564l0.8133,-2.2464l0.8133,-2.234l0.8134,-2.2193l0.8133,-2.2023l0.8133,-2.183l0.8134,-2.1615l0.8133,-2.1378l0.8133,-2.1119l0.8134,-2.0838l0.8133,-2.0535l0.8133,-2.0212l0.8134,-1.9869l0.8133,-1.9504l0.8133,-1.912l0.8134,-1.8717l0.8133,-1.8294l0.8133,-1.7853l0.8134,-1.7395l0.8133,-1.6917l0.8133,-1.6424l0.8134,-1.5914l0.8133,-1.5387l0.8133,-1.4845l0.8134,-1.4288l0.8133,-1.3717l0.8133,-1.3132l0.8134,-1.2534l0.8133,-1.1922l0.8133,-1.13l0.8134,-1.0665l0.8133,-1.0021l0.8133,-0.9365l0.8134,-0.8701l0.8133,-0.8028l0.8133,-0.7347l0.8134,-0.6658l0.8133,-0.5964l0.8133,-0.5262l0.8134,-0.4555l0.8133,-0.3845l0.8133,-0.313l0.8134,-0.2411l0.8133,-0.1692l0.8133,-0.0969l0.8134,-0.0247l0.8133,0.0477l0.8133,0.12l0.8134,0.1921l0.8133,0.2641l0.8133,0.3358l0.8134,0.4071l0.8133,0.4781l0.8133,0.5486l0.8134,0.6185l0.8133,0.6879l0.8133,0.7564l0.8134,0.8244l0.8133,0.8913l0.8133,0.9576l0.8134,1.0227l0.8133,1.0868l0.8133,1.15l0.8134,1.2118l0.8133,1.2726l0.8133,1.3319l0.8134,1.3901l0.8133,1.4467l0.8133,1.5019l0.8134,1.5557l0.8133,1.6077l0.8133,1.6584l0.8134,1.7071l0.8133,1.7542l0.8133,1.7996l0.8134,1.8431l0.8133,1.8848l0.8133,1.9244l0.8134,1.9622l0.8133,1.9981l0.8133,2.0317l0.8134,2.0634l0.8133,2.0929l0.8133,2.1204l0.8134,2.1456l0.8133,2.1686l0.8133,2.1894l0.8134,2.208l0.8133,2.2242l0.8133,2.2382l0.8134,2.2499l0.8133,2.2591l0.8133,2.2661l0.8134,2.2707l0.8133,2.2729l0.8133,2.2727l0.8134,2.2702l0.8133,2.2652l0.8133,2.2579l0.8134,2.2481l0.8133,2.236l0.8133,2.2214l0.8134,2.2046l0.8133,2.1852l0.8133,2.1637l0.8134,2.1396l0.8133,2.1133l0.8133,2.0847l0.8134,2.0538l0.8133,2.0205l0.8133,1.9852l0.8134,1.9474l0.8133,1.9076l0.8133,1.8655l0.8134,1.8214l0.8133,1.7751l0.8133,1.7268l0.8134,1.6765l0.8133,1.6241l0.8133,1.5699l0.8134,1.5137l0.8133,1.4556l0.8133,1.3959l0.8134,1.3343l0.8133,1.2709l0.8133,1.206l0.8134,1.1395l0.8133,1.0714l0.8133,1.0017l0.8134,0.9308l0.8133,0.8584l0.8133,0.7846l0.8134,0.7097l0.8133,0.6335l0.8133,0.5562l0.8134,0.4779l0.8133,0.3986l0.8133,0.3183l0.8134,0.2371l0.8133,0.1553l0.8133,0.0726l0.8134,-0.0107l0.8133,-0.0946l0.8133,-0.1789l0.8134,-0.2638l0.8133,-0.3489l0.8133,-0.4345l0.8134,-0.5201l0.8133,-0.606l0.8133,-0.6919l0.8134,-0.7778l0.8133,-0.8637l0.8133,-0.9494l0.8134,-1.0349l0.8133,-1.12l0.8133,-1.2049l0.8134,-1.2892l0.8133,-1.3731l0.8133,-1.4564l0.8134,-1.539l0.8133,-1.6209l0.8133,-1.7019l0.8134,-1.7823l0.8133,-1.8615l0.8133,-1.9397l0.8134,-2.017l0.8133,-2.093l0.8133,-2.1678l0.8134,-2.2415l0.8133,-2.3137l0.8133,-2.3845l0.8134,-2.4539l0.8133,-2.5218l0.8133,-2.5881l0.8134,-2.6527l0.8133,-2.7156l0.8133,-2.7769l0.8134,-2.8362l0.8133,-2.8939l0.8133,-2.9494l0.8134,-3.0032l0.8133,-3.0548l0.8133,-3.1046l0.8134,-3.1521l0.8133,-3.1975l0.8133,-3.2409l0.8134,-3.2818l0.8133,-3.3208l0.8133,-3.3573l0.8134,-3.3915l0.8133,-3.4235l0.8133,-3.453l0.8134,-3.4802l0.8133,-3.505l0.8133,-3.5272l0.8134,-3.5472l0.8133,-3.5645l0.8133,-3.5795l0.8134,-3.5918l0.8133,-3.6018l0.8133,-3.6092l0.8134,-3.614l0.8133,-3.6163l0.8133,-3.6161l0.8134,-3.6134l0.8133,-3.6082l0.8133,-3.6003l0.8134,-3.5901l0.8133,-3.5772l0.8133,-3.562l0.8134,-3.5441l0.8133,-3.5239l0.8133,-3.5012l0.8134,-3.476l0.8133,-3.4485l0.8133,-3.4185l0.8134,-3.3863l0.8133,-3.3516l0.8133,-3.3147l0.8134,-3.2755l0.8133,-3.2341l0.8133,-3.1904l0.8134,-3.1447l0.8133,-3.0967l0.8133,-3.0468l0.8134,-2.9948l0.8133,-2.9407l0.8133,-2.8848l0.8134,-2.8269l0.8133,-2.7672l0.8133,-2.7058l0.8134,-2.6425l0.8133,-2.5776l0.8133,-2.5111l0.8134,-2.4429l0.8133,-2.3734l0.8133,-2.3023l0.8134,-2.2298l0.8133,-2.156l0.8133,-2.081l0.8134,-2.0047l0.8133,-1.9274l0.8133,-1.8489l0.8134,-1.7695l0.8133,-1.6891l0.8133,-1.6079l0.8134,-1.5259l0.8133,-1.4432l0.8133,-1.3597l0.8134,-1.2759l0.8133,-1.1914l0.8133,-1.1065l0.8134,-1.0212l0.8133,-0.9358l0.8133,-0.85l0.8134,-0.7641l0.8133,-0.6783l0.8133,-0.5923l0.8134,-0.5064l0.8133,-0.4209l0.8133,-0.3353l0.8134,-0.2503l0.8133,-0.1654l0.8133,-0.0812l0.8134,0.0026l0.8133,0.0858l0.8133,0.1684l0.8134,0.2501l0.8133,0.3312l0.8133,0.4112l0.8134,0.4904l0.8133,0.5687l0.8133,0.6457l0.8134,0.7217l0.8133,0.7965l0.8133,0.8699l0.8134,0.9422l0.8133,1.0129l0.8133,1.0824l0.8134,1.1501l0.8133,1.2165l0.8133,1.2811l0.8134,1.3442l0.8133,1.4055l0.8133,1.4651l0.8134,1.5227l0.8133,1.5787l0.8133,1.6326l0.8134,1.6846l0.8133,1.7346l0.8133,1.7826l0.8134,1.8286l0.8133,1.8724l0.8133,1.9141l0.8134,1.9535l0.8133,1.9909l0.8133,2.026l0.8134,2.0589l0.8133,2.0894l0.8133,2.1176l0.8134,2.1437l0.8133,2.1672l0.8133,2.1885l0.8134,2.2074l0.8133,2.2239l0.8133,2.2381l0.8134,2.2498l0.8133,2.2592l0.8133,2.2662l0.8134,2.2707l0.8133,2.2729l0.8133,2.2727l0.8134,2.2702l0.8133,2.2651l0.8133,2.2578l0.8134,2.2482l0.8133,2.2361l0.8133,2.2218l0.8134,2.2051l0.8133,2.1863l0.8133,2.1651l0.8134,2.1417l0.8133,2.1162l0.8133,2.0884l0.8134,2.0585l0.8133,2.0265l0.8133,1.9924l0.8134,1.9564l0.8133,1.9182l0.8133,1.8783l0.8134,1.8362l0.8133,1.7925l0.8133,1.7469l0.8134,1.6995l0.8133,1.6503l0.8133,1.5996l0.8134,1.5472l0.8133,1.4933l0.8133,1.4378l0.8134,1.3808l0.8133,1.3226l0.8133,1.263l0.8134,1.2021l0.8133,1.1399l0.8133,1.0767l0.8134,1.0124l0.8133,0.9471l0.8133,0.8807l0.8134,0.8136l0.8133,0.7456l0.8133,0.6768l0.8134,0.6075l0.8133,0.5374l0.8133,0.4668l0.8134,0.3958l0.8133,0.3244l0.8133,0.2526l0.8134,0.1807l0.8133,0.1084l0.8133,0.0362l0.8134,-0.0362l0.8133,-0.1084l0.8133,-0.1807l0.8134,-0.2526l0.8133,-0.3244l0.8133,-0.3958l0.8134,-0.4668l0.8133,-0.5374l0.8133,-0.6075l0.8134,-0.6768l0.8133,-0.7456l0.8133,-0.8136l0.8134,-0.8807l0.8133,-0.9471l0.8133,-1.0124l0.8134,-1.0767l0.8133,-1.1399l0.8133,-1.2021l0.8134,-1.263l0.8133,-1.3226l0.8133,-1.3808l0.8134,-1.4378l0.8133,-1.4933l0.8133,-1.5472l0.8134,-1.5996l0.8133,-1.6503l0.8133,-1.6995l0.8134,-1.7469l0.8133,-1.7925l0.8133,-1.8362l0.8134,-1.8783l0.8133,-1.9182l0.8133,-1.9564l0.8134,-1.9924l0.8133,-2.0265l0.8133,-2.0585l0.8134,-2.0884l0.8133,-2.1162l0.8133,-2.1417l0.8134,-2.1651l0.8133,-2.1863l0.8133,-2.2051l0.8134,-2.2218l0.8133,-2.2361l0.8133,-2.2482l0.8134,-2.2578l0.8133,-2.2651l0.8133,-2.2702l0.8134,-2.2727l0.8133,-2.2729l0.8133,-2.2707l0.8134,-2.2662l0.8133,-2.2592l0.8133,-2.2498l0.8134,-2.2381l0.8133,-2.2239l0.8133,-2.2074l0.8134,-2.1885l0.8133,-2.1672l0.8133,-2.1437l0.8134,-2.1176l0.8133,-2.0894l0.8133,-2.0589l0.8134,-2.026l0.8133,-1.9909l0.8133,-1.9535l0.8134,-1.9141l0.8133,-1.8724l0.8133,-1.8286l0.8134,-1.7826l0.8133,-1.7346l0.8133,-1.6846l0.8134,-1.6326l0.8133,-1.5787l0.8133,-1.5227l0.8134,-1.4651l0.8133,-1.4055l0.8133,-1.3442l0.8134,-1.2811l0.8133,-1.2165l0.8133,-1.1501l0.8134,-1.0824l0.8133,-1.0129l0.8133,-0.9422l0.8134,-0.8699l0.8133,-0.7965l0.8133,-0.7217l0.8134,-0.6457l0.8133,-0.5687l0.8133,-0.4904l0.8134,-0.4112l0.8133,-0.3312l0.8133,-0.2501l0.8134,-0.1684l0.8133,-0.0858l0.8133,-0.0026l0.8134,0.0812l0.8133,0.1654l0.8133,0.2503l0.8134,0.3353l0.8133,0.4209l0.8133,0.5064l0.8134,0.5923l0.8133,0.6783l0.8133,0.7641l0.8134,0.85l0.8133,0.9358l0.8133,1.0212l0.8134,1.1065l0.8133,1.1914l0.8133,1.2759l0.8134,1.3597l0.8133,1.4432l0.8133,1.5259l0.8134,1.6079l0.8133,1.6891l0.8133,1.7695l0.8134,1.8489l0.8133,1.9274l0.8133,2.0047l0.8134,2.081l0.8133,2.156l0.8133,2.2298l0.8134,2.3023l0.8133,2.3734l0.8133,2.4429l0.8134,2.5111l0.8133,2.5776l0.8133,2.6425l0.8134,2.7058l0.8133,2.7672l0.8133,2.8269l0.8134,2.8848l0.8133,2.9407l0.8133,2.9948l0.8134,3.0468l0.8133,3.0967l0.8133,3.1447l0.8134,3.1904l0.8133,3.2341l0.8133,3.2755l0.8134,3.3147l0.8133,3.3516l0.8133,3.3863l0.8134,3.4185l0.8133,3.4485l0.8133,3.476l0.8134,3.5012l0.8133,3.5239l0.8133,3.5441l0.8134,3.562l0.8133,3.5772l0.8133,3.5901l0.8134,3.6003l0.8133,3.6082l0.8133,3.6134l0.8134,3.6161l0.8133,3.6163l0.8133,3.614l0.8134,3.6092l0.8133,3.6018l0.8133,3.5918l0.8134,3.5795l0.8133,3.5645l0.8133,3.5472l0.8134,3.5272l0.8133,3.505l0.8133,3.4802l0.8134,3.453l0.8133,3.4235l0.8133,3.3915l0.8134,3.3573l0.8133,3.3208l0.8133,3.2818l0.8134,3.2409l0.8133,3.1975l0.8133,3.1521l0.8134,3.1046l0.8133,3.0548l0.8133,3.0032l0.8134,2.9494l0.8133,2.8939l0.8133,2.8362l0.8134,2.7769l0.8133,2.7156l0.8133,2.6527l0.8134,2.5881l0.8133,2.5218l0.8133,2.4539l0.8134,2.3845l0.8133,2.3137l0.8133,2.2415l0.8134,2.1678l0.8133,2.093l0.8133,2.017l0.8134,1.9397l0.8133,1.8615l0.8133,1.7823l0.8134,1.7019l0.8133,1.6209l0.8133,1.539l0.8134,1.4564l0.8133,1.3731l0.8133,1.2892l0.8134,1.2049l0.8133,1.12l0.8133,1.0349l0.8134,0.9494l0.8133,0.8637l0.8133,0.7778l0.8134,0.6919l0.8133,0.606l0.8133,0.5201l0.8134,0.4345l0.8133,0.3489l0.8133,0.2638l0.8134,0.1789l0.8133,0.0946l0.8133,0.0107l0.8134,-0.0726l0.8133,-0.1553l0.8133,-0.2371l0.8134,-0.3183l0.8133,-0.3986l0.8133,-0.4779l0.8134,-0.5562l0.8133,-0.6335l0.8133,-0.7097l0.8134,-0.7846l0.8133,-0.8584l0.8133,-0.9308l0.8134,-1.0017l0.8133,-1.0714l0.8133,-1.1395l0.8134,-1.206l0.8133,-1.2709l0.8133,-1.3343l0.8134,-1.3959l0.8133,-1.4556l0.8133,-1.5137l0.8134,-1.5699l0.8133,-1.6241l0.8133,-1.6765l0.8134,-1.7268l0.8133,-1.7751l0.8133,-1.8214l0.8134,-1.8655l0.8133,-1.9076l0.8133,-1.9474l0.8134,-1.9852l0.8133,-2.0205l0.8133,-2.0538l0.8134,-2.0847l0.8133,-2.1133l0.8133,-2.1396l0.8134,-2.1637l0.8133,-2.1852l0.8133,-2.2046l0.8134,-2.2214l0.8133,-2.236l0.8133,-2.2481l0.8134,-2.2579l0.8133,-2.2652l0.8133,-2.2702l0.8134,-2.2727l0.8133,-2.2729l0.8133,-2.2707l0.8134,-2.2661l0.8133,-2.2591l0.8133,-2.2499l0.8134,-2.2382l0.8133,-2.2242l0.8133,-2.208l0.8134,-2.1894l0.8133,-2.1686l0.8133,-2.1456l0.8134,-2.1204l0.8133,-2.0929l0.8133,-2.0634l0.8134,-2.0317l0.8133,-1.9981l0.8133,-1.9622l0.8134,-1.9244l0.8133,-1.8848l0.8133,-1.8431l0.8134,-1.7996l0.8133,-1.7542l0.8133,-1.7071l0.8134,-1.6584l0.8133,-1.6077l0.8133,-1.5557l0.8134,-1.5019l0.8133,-1.4467l0.8133,-1.3901l0.8134,-1.3319l0.8133,-1.2726l0.8133,-1.2118l0.8134,-1.15l0.8133,-1.0868l0.8133,-1.0227l0.8134,-0.9576l0.8133,-0.8913l0.8133,-0.8244l0.8134,-0.7564l0.8133,-0.6879l0.8133,-0.6185l0.8134,-0.5486l0.8133,-0.4781l0.8133,-0.4071l0.8134,-0.3358l0.8133,-0.2641l0.8133,-0.1921l0.8134,-0.12l0.8133,-0.0477l0.8133,0.0247l0.8134,0.0969l0.8133,0.1692l0.8133,0.2411l0.8134,0.313l0.8133,0.3845l0.8133,0.4555l0.8134,0.5262l0.8133,0.5964l0.8133,0.6658l0.8134,0.7347l0.8133,0.8028l0.8133,0.8701l0.8134,0.9365l0.8133,1.0021l0.8133,1.0665l0.8134,1.13l0.8133,1.1922l0.8133,1.2534l0.8134,1.3132l0.8133,1.3717l0.8133,1.4288l0.8134,1.4845l0.8133,1.5387l0.8133,1.5914l0.8134,1.6424l0.8133,1.6917l0.8133,1.7395l0.8134,1.7853l0.8133,1.8294l0.8133,1.8717l0.8134,1.912l0.8133,1.9504l0.8133,1.9869l0.8134,2.0212l0.8133,2.0535l0.8133,2.0838l0.8134,2.1119l0.8133,2.1378l0.8133,2.1615l0.8134,2.183l0.8133,2.2023l0.8133,2.2193l0.8134,2.234l0.8133,2.2464l0.8133,2.2564l0.8134,2.2642l0.8133,2.2695l0.8133,2.2724l0.8134,2.273l0.8133,2.2713l0.8133,2.267l0.8134,2.2605l0.8133,2.2515l0.8133,2.2401l0.8134,2.2264l0.8133,2.2101l0.8133,2.1917l0.8134,2.1708l0.8133,2.1475l0.8134,2.122l0.8133,2.0941l0.8133,2.0638l0.8134,2.0314l0.8133,1.9966l0.8133,1.9597l0.8133,1.9205l0.8134,1.8792l0.8133,1.8356l0.8133,1.7901l0.8134,1.7424l0.8133,1.6928l0.8133,1.641l0.8134,1.5873l0.8133,1.5318l0.8133,1.4744l0.8134,1.4151l0.8133,1.3541l0.8133,1.2912l0.8134,1.2269l0.8133,1.1609l0.8133,1.0932l0.8134,1.0241l0.8133,0.9535l0.8133,0.8816l0.8134,0.8083l0.8133,0.7336l0.8133,0.6579l0.8134,0.581l0.8133,0.5029l0.8133,0.424l0.8134,0.3439l0.8133,0.2631l0.8133,0.1814l0.8134,0.099l0.8133,0.016l0.8133,-0.0678l0.8134,-0.152l0.8133,-0.2367l0.8133,-0.3218l0.8134,-0.4072l0.8133,-0.4928l0.8133,-0.5786l0.8134,-0.6646l0.8133,-0.7505l0.8133,-0.8363l0.8134,-0.9221l0.8133,-1.0077l0.8133,-1.0929l0.8134,-1.1779l0.8133,-1.2624l0.8133,-1.3465l0.8134,-1.4299l0.8133,-1.5128l0.8133,-1.5948l0.8134,-1.6763l0.8133,-1.7567l0.8133,-1.8364l0.8133,-1.9149l0.8134,-1.9925l0.8133,-2.0689l0.8133,-2.1442l0.8134,-2.2181l0.8133,-2.2908l0.8133,-2.3622l0.8134,-2.4319l0.8134,-2.5004l0.8132,-2.5671l0.8134,-2.6323l0.8134,-2.6958l0.8132,-2.7575l0.8134,-2.8176l0.8134,-2.8757l0.8133,-2.9319l0.8133,-2.9863l0.8134,-3.0386l0.8133,-3.0889l0.8133,-3.1372l0.8134,-3.1833l0.8133,-3.2273l0.8133,-3.269l0.8133,-3.3087l0.8134,-3.3458l0.8133,-3.3809l0.8133,-3.4136l0.8134,-3.4439l0.8133,-3.4718l0.8133,-3.4973l0.8134,-3.5204l0.8133,-3.5411l0.8133,-3.5593l0.8134,-3.575l0.8133,-3.5881l0.8133,-3.5989l0.8134,-3.6071l0.8133,-3.6127l0.8133,-3.6159l0.8134,-3.6165l0.8133,-3.6145l0.8133,-3.6101l0.8134,-3.6031l0.8133,-3.5936l0.8133,-3.5816l0.8134,-3.5671l0.8133,-3.5501l0.8133,-3.5306l0.8134,-3.5087l0.8133,-3.4843l0.8133,-3.4575l0.8134,-3.4283l0.8133,-3.3968l0.8133,-3.3629l0.8134,-3.3267l0.8133,-3.2883l0.8133,-3.2475l0.8134,-3.2046l0.8133,-3.1594l0.8133,-3.1123l0.8134,-3.0629l0.8133,-3.0115l0.8133,-2.9582l0.8134,-2.9028l0.8133,-2.8455l0.8133,-2.7865l0.8134,-2.7255l0.8133,-2.6628l0.8133,-2.5985l0.8134,-2.5324l0.8133,-2.4649l0.8133,-2.3956l0.8134,-2.3251l0.8133,-2.2531l0.8133,-2.1796l0.8133,-2.105l0.8134,-2.0292l0.8133,-1.9521l0.8133,-1.8741l0.8134,-1.7948l0.8133,-1.7149l0.8133,-1.6338l0.8134,-1.5521l0.8134,-1.4696l0.8132,-1.3864l0.8134,-1.3026l0.8134,-1.2184l0.8132,-1.1335l0.8134,-1.0485l0.8134,-0.963l0.8133,-0.8773l0.8133,-0.7916l0.8134,-0.7056l0.8133,-0.6196l0.8133,-0.5338l0.8134,-0.4481l0.8133,-0.3626l0.8133,-0.2773l0.8133,-0.1924l0.8134,-0.108l0.8133,-0.024l0.8133,0.0594l0.8134,0.1421l0.8133,0.2242l0.8133,0.3054l0.8134,0.3859l0.8133,0.4653l0.8133,0.5438l0.8134,0.6213l0.8133,0.6976l0.8133,0.7728l0.8134,0.8467l0.8133,0.9193l0.8133,0.9906l0.8134,1.0604l0.8133,1.1287l0.8133,1.1955l0.8134,1.2607l0.8133,1.3243l0.8133,1.3862l0.8134,1.4463l0.8133,1.5045l0.8133,1.5611l0.8134,1.6156l0.8133,1.6683l0.8133,1.7189l0.8134,1.7675l0.8133,1.8142l0.8133,1.8586l0.8134,1.9011l0.8133,1.9412l0.8133,1.9793l0.8134,2.015l0.8133,2.0486l0.8133,2.08l0.8134,2.1089l0.8133,2.1356l0.8133,2.16l0.8134,2.1819l0.8133,2.2017l0.8133,2.2189l0.8134,2.2338l0.8133,2.2464l0.8133,2.2564l0.8134,2.2642l0.8133,2.2696l0.8133,2.2725l0.8134,2.273l0.8133,2.2712l0.8133,2.267l0.8133,2.2604l0.8134,2.2515l0.8133,2.2402l0.8133,2.2266l0.8134,2.2107l0.8133,2.1925l0.8133,2.1721l0.8134,2.1494l0.8134,2.1245l0.8132,2.0975l0.8134,2.0682l0.8134,2.037l0.8132,2.0035l0.8134,1.968l0.8134,1.9307l0.8133,1.8911l0.8133,1.8499l0.8134,1.8066l0.8133,1.7616l0.8133,1.7148l0.8134,1.6662l0.8133,1.6159l0.8133,1.5641l0.8133,1.5106l0.8134,1.4556l0.8133,1.3992l0.8133,1.3413l0.8134,1.282l0.8133,1.2217l0.8133,1.1598l0.8134,1.097l0.8133,1.033l0.8133,0.968l0.8134,0.9019l0.8133,0.8351l0.8133,0.7673l0.8134,0.6988l0.8133,0.6296l0.8133,0.5598l0.8134,0.4894l0.8133,0.4185l0.8133,0.3471l0.8134,0.2756l0.8133,0.2036l0.8133,0.1314l0.8134,0.0592l0.8133,-0.0131l0.8133,-0.0854l0.8134,-0.1577l0.8133,-0.2297l0.8133,-0.3016l0.8134,-0.3731l0.8133,-0.4443l0.8133,-0.5149l0.8134,-0.5852l0.8133,-0.6548l0.8133,-0.7238l0.8134,-0.792l0.8133,-0.8594l0.8133,-0.9261l0.8134,-0.9917l0.8133,-1.0563l0.8133,-1.1199l0.8134,-1.1824l0.8133,-1.2437l0.8133,-1.3038l0.8134,-1.3624l0.8133,-1.4199l0.8133,-1.4757l0.8134,-1.5302l0.8133,-1.5831l0.8133,-1.6343l0.8134,-1.684l0.8133,-1.732l0.8133,-1.7781l0.8133,-1.8226l0.8134,-1.8651l0.8133,-1.9057l0.8133,-1.9444l0.8134,-1.9812l0.8133,-2.0159l0.8133,-2.0485l0.8134,-2.0791l0.8134,-2.1075l0.8132,-2.1338l0.8134,-2.1579l0.8134,-2.1798l0.8132,-2.1994l0.8134,-2.2167l0.8134,-2.2318l0.8133,-2.2446l0.8133,-2.255l0.8134,-2.2631l0.8133,-2.2688l0.8133,-2.2721l0.8134,-2.2731l0.8133,-2.2717l0.8133,-2.2679l0.8133,-2.2616l0.8134,-2.2531l0.8133,-2.2421l0.8133,-2.2287l0.8134,-2.2129l0.8133,-2.1948l0.8133,-2.1743l0.8134,-2.1514l0.8133,-2.1261l0.8133,-2.0987l0.8134,-2.0688l0.8133,-2.0367l0.8133,-2.0023l0.8134,-1.9658l0.8133,-1.9268l0.8133,-1.8859l0.8134,-1.8428l0.8133,-1.7975l0.8133,-1.7501l0.8134,-1.7008l0.8133,-1.6494l0.8133,-1.596l0.8134,-1.5408l0.8133,-1.4836l0.8133,-1.4246l0.8134,-1.3639l0.8133,-1.3015l0.8133,-1.2372l0.8134,-1.1715l0.8133,-1.1041l0.8133,-1.0352l0.8134,-0.9648l0.8133,-0.8932l0.8133,-0.82l0.8134,-0.7456l0.8133,-0.6701l0.8133,-0.5933l0.8134,-0.5154l0.8133,-0.4366l0.8133,-0.3568l0.8134,-0.276l0.8133,-0.1945l0.8133,-0.1121l0.8134,-0.0292l0.8133,0.0544l0.8133,0.1386l0.8134,0.2232l0.8133,0.3082l0.8133,0.3935l0.8134,0.4792l0.8133,0.5649l0.8133,0.6509l0.8133,0.7368l0.8134,0.8227l0.8133,0.9084l0.8133,0.9941l0.8134,1.0794l0.8133,1.1643l0.8133,1.249l0.8134,1.3331l0.8134,1.4167l0.8132,1.4996l0.8134,1.5819l0.8134,1.6633l0.8132,1.744l0.8134,1.8237l0.8134,1.9025l0.8133,1.9802l0.8133,2.0568l0.8134,2.1323l0.8133,2.2065l0.8133,2.2793l0.8134,2.3509l0.8133,2.4209l0.8133,2.4895l0.8133,2.5566l0.8134,2.6221l0.8133,2.6858l0.8133,2.7478l0.8134,2.8081l0.8133,2.8666l0.8133,2.9231l0.8134,2.9777l0.8133,3.0304l0.8133,3.0811l0.8134,3.1296l0.8133,3.1761l0.8133,3.2204l0.8134,3.2626l0.8133,3.3024l0.8133,3.3402l0.8134,3.3754l0.8133,3.4085l0.8133,3.4392l0.8134,3.4676l0.8133,3.4934l0.8133,3.5169l0.8134,3.538l0.8133,3.5565l0.8133,3.5726l0.8134,3.5863l0.8133,3.5973l0.8133,3.606l0.8134,3.612l0.8133,3.6155l0.8133,3.6166l0.8134,3.615l0.8133,3.611l0.8133,3.6043l0.8134,3.5953l0.8133,3.5837l0.8133,3.5696l0.8134,3.5529l0.8133,3.5339l0.8133,3.5123l0.8134,3.4884l0.8133,3.4619l0.8133,3.4331l0.8134,3.402l0.8133,3.3685l0.8133,3.3326l0.8134,3.2945l0.8133,3.2542l0.8133,3.2115l0.8134,3.1668l0.8133,3.1199l0.8133,3.071l0.8133,3.0198l0.8134,2.9668l0.8133,2.9117l0.8133,2.8548l0.8134,2.796l0.8133,2.7353l0.8133,2.673l0.8134,2.6088l0.8134,2.5431l0.8132,2.4757l0.8134,2.4068l0.8134,2.3364l0.8132,2.2646l0.8134,2.1914l0.8134,2.117l0.8133,2.0414l0.8133,1.9644l0.8134,1.8865l0.8133,1.8076l0.8133,1.7277l0.8134,1.6468l0.8133,1.5651l0.8133,1.4828l0.8133,1.3997l0.8134,1.316l0.8133,1.2318l0.8133,1.1471l0.8134,1.062l0.8133,0.9767l0.8133,0.891l0.8134,0.8052l0.8133,0.7192l0.8133,0.6334l0.8134,0.5474l0.8133,0.4618l0.8133,0.3761l0.8134,0.2909l0.8133,0.2059l0.8133,0.1214l0.8134,0.0374l0.8133,-0.0462l0.8133,-0.129l0.8134,-0.2111l0.8133,-0.2926l0.8133,-0.3731l0.8134,-0.4527l0.8133,-0.5314l0.8133,-0.609l0.8134,-0.6856l0.8133,-0.7609l0.8133,-0.835l0.8134,-0.9078l0.8133,-0.9793l0.8133,-1.0494l0.8134,-1.1179l0.8133,-1.185l0.8133,-1.2505l0.8134,-1.3142l0.8133,-1.3765l0.8133,-1.4368l0.8134,-1.4954l0.8133,-1.5522l0.8133,-1.607l0.8134,-1.66l0.8133,-1.711l0.8133,-1.7599l0.8134,-1.8069l0.8133,-1.8517l0.8133,-1.8945l0.8134,-1.9349l0.8133,-1.9734l0.8133,-2.0095l0.8134,-2.0434l0.8133,-2.0751l0.8133,-2.1045l0.8133,-2.1315l0.8134,-2.1562l0.8133,-2.1786l0.8133,-2.1987l0.8134,-2.2163l0.8133,-2.2316l0.8133,-2.2446l0.8134,-2.255l0.8134,-2.2631l0.8132,-2.2689l0.8134,-2.2721l0.8134,-2.2731l0.8132,-2.2717l0.8134,-2.2678l0.8134,-2.2616l0.8133,-2.2531l0.8133,-2.2421l0.8134,-2.229l0.8133,-2.2134l0.8133,-2.1955l0.8134,-2.1755l0.8133,-2.1532l0.8133,-2.1286l0.8133,-2.1019l0.8134,-2.0731l0.8133,-2.042l0.8133,-2.009l0.8134,-1.9739l0.8133,-1.9367l0.8133,-1.8976l0.8134,-1.8565l0.8133,-1.8137l0.8133,-1.7689l0.8134,-1.7223l0.8133,-1.674l0.8133,-1.6241l0.8134,-1.5724l0.8133,-1.5192l0.8133,-1.4645l0.8134,-1.4083l0.8133,-1.3506l0.8133,-1.2916l0.8134,-1.2313l0.8133,-1.1698l0.8133,-1.107l0.8134,-1.0433l0.8133,-0.9784l0.8133,-0.9125l0.8134,-0.8458l0.8133,-0.7782l0.8133,-0.7098l0.8134,-0.6406l0.8133,-0.571l0.8133,-0.5006l0.8134,-0.4298l0.8133,-0.3586l0.8133,-0.2869l0.8134,-0.2151l0.8133,-0.1429l0.8133,-0.0707l0.8134,0.0016l0.8133,0.0739l0.8133,0.1461l0.8134,0.2183l0.8133,0.2902l0.8133,0.3617l0.8134,0.4329l0.8133,0.5038l0.8133,0.5741l0.8134,0.6437l0.8133,0.7128l0.8133,0.7812l0.8134,0.8488l0.8133,0.9155l0.8133,0.9813l0.8133,1.0461l0.8134,1.1099l0.8133,1.1725l0.8133,1.234l0.8134,1.2943l0.8133,1.3532l0.8133,1.4108l0.8134,1.4669l0.8134,1.5216l0.8132,1.5747l0.8134,1.6264l0.8134,1.6762l0.8132,1.7244l0.8134,1.7709l0.8134,1.8156l0.8133,1.8584l0.8133,1.8994l0.8134,1.9384l0.8133,1.9755l0.8133,2.0105l0.8134,2.0434l0.8133,2.0744l0.8133,2.1031l0.8133,2.1298l0.8134,2.1542l0.8133,2.1765l0.8133,2.1964l0.8134,2.2141l0.8133,2.2296l0.8133,2.2427l0.8134,2.2534l0.8133,2.262l0.8133,2.268l0.8134,2.2718l0.8133,2.2731l0.8133,2.2721l0.8134,2.2686l0.8133,2.2629l0.8133,2.2545l0.8134,2.2441l0.8133,2.2309l0.8133,2.2156l0.8134,2.1978l0.8133,2.1777l0.8133,2.1552l0.8134,2.1304l0.8133,2.1032l0.8134,2.0737l0.8132,2.042l0.8134,2.0079l0.8133,1.9717l0.8134,1.9332l0.8133,1.8926l0.8134,1.8498l0.8132,1.8048l0.8134,1.7578l0.8133,1.7088l0.8134,1.6577l0.8133,1.6047l0.8134,1.5496l0.8132,1.4929l0.8134,1.4342l0.8133,1.3737l0.8134,1.3115l0.8133,1.2475l0.8133,1.1821l0.8133,1.1149l0.8134,1.0463l0.8133,0.9761l0.8134,0.9047l0.8133,0.8317l0.8133,0.7576l0.8133,0.6822l0.8134,0.6056l0.8133,0.5279l0.8134,0.4492l0.8134,0.3695l0.8132,0.289l0.8133,0.2075l0.8134,0.1253l0.8133,0.0424l0.8134,-0.041l0.8134,-0.1251l0.8132,-0.2097l0.8133,-0.2947l0.8134,-0.3799l0.8134,-0.4655l0.8133,-0.5513l0.8132,-0.6372l0.8134,-0.7231l0.8134,-0.809l0.8133,-0.8948l0.8134,-0.9804l0.8133,-1.0658l0.8132,-1.1509l0.8134,-1.2355l0.8134,-1.3198l0.8133,-1.4034l0.8134,-1.4864l0.8133,-1.5689l0.8133,-1.6504l0.8133,-1.7312l0.8134,-1.811l0.8133,-1.8901l0.8134,-1.9679l0.8133,-2.0447l0.8133,-2.1203l0.8133,-2.1947l0.8134,-2.2679l0.8133,-2.3395l0.8134,-2.4099l0.8132,-2.4787l0.8134,-2.546l0.8133,-2.6117l0.8134,-2.6758l0.8133,-2.7381l0.8134,-2.7986l0.8132,-2.8574l0.8134,-2.9142l0.8133,-2.9692l0.8134,-3.0222l0.8133,-3.0731l0.8134,-3.122l0.8132,-3.1689l0.8134,-3.2135l0.8133,-3.2559l0.8134,-3.2963l0.8133,-3.3343l0.8134,-3.37l0.8132,-3.4034l0.8134,-3.4344l0.8133,-3.4632l0.8134,-3.4895l0.8133,-3.5133l0.8134,-3.5348l0.8132,-3.5537l0.8134,-3.5703l0.8133,-3.5842l0.8134,-3.5958l0.8133,-3.6047l0.8133,-3.6112l0.8133,-3.6151l0.8134,-3.6166l0.8133,-3.6154l0.8134,-3.6118l0.8133,-3.6056l0.8133,-3.5969l0.8133,-3.5857l0.8134,-3.572l0.8133,-3.5558l0.8134,-3.537l0.8134,-3.516l0.8132,-3.4923l0.8133,-3.4663l0.8134,-3.4379l0.8133,-3.4071l0.8134,-3.3739l0.8134,-3.3385l0.8132,-3.3008l0.8133,-3.2607l0.8134,-3.2185l0.8134,-3.1741l0.8133,-3.1275l0.8132,-3.0788l0.8134,-3.0281l0.8134,-2.9754l0.8133,-2.9207l0.8134,-2.864l0.8133,-2.8054l0.8132,-2.7452l0.8134,-2.6829l0.8134,-2.6192l0.8133,-2.5536l0.8134,-2.4866l0.8133,-2.4178l0.8133,-2.3478l0.8133,-2.2761l0.8134,-2.2032l0.8133,-2.1289l0.8134,-2.0535l0.8133,-1.9767l0.8133,-1.8991l0.8133,-1.8202l0.8134,-1.7404l0.8133,-1.6597l0.8134,-1.5782l0.8132,-1.496l0.8134,-1.413l0.8133,-1.3293l0.8134,-1.2453l0.8133,-1.1606l0.8134,-1.0756l0.8132,-0.9902l0.8134,-0.9047l0.8133,-0.8189l0.8134,-0.7329l0.8133,-0.6471l0.8134,-0.5611l0.8132,-0.4754l0.8134,-0.3897l0.8133,-0.3045l0.8134,-0.2194l0.8133,-0.1348l0.8134,-0.0507l0.8132,0.0329l0.8134,0.1158l0.8133,0.1981l0.8134,0.2797l0.8133,0.3603l0.8134,0.4401l0.8132,0.5189l0.8134,0.5968l0.8133,0.6734l0.8134,0.749l0.8133,0.8233l0.8133,0.8963l0.8133,0.968l0.8134,1.0383l0.8133,1.1071l0.8134,1.1744l0.8133,1.2402l0.8133,1.3042l0.8133,1.3666l0.8134,1.4274l0.8133,1.4862l0.8134,1.5432l0.8134,1.5985l0.8132,1.6517l0.8133,1.703l0.8134,1.7523l0.8133,1.7995l0.8134,1.8447l0.8134,1.8878l0.8132,1.9286l0.8133,1.9674l0.8134,2.0039l0.8134,2.0382l0.8133,2.0702l0.8132,2.0999l0.8134,2.1274l0.8134,2.1524l0.8133,2.1753l0.8134,2.1956l0.8133,2.2137l0.8132,2.2293l0.8134,2.2426l0.8134,2.2535l0.8133,2.262l0.8134,2.2681l0.8133,2.2718l0.8133,2.2732l0.8133,2.272l0.8134,2.2686l0.8133,2.2627l0.8134,2.2546l0.8133,2.2441l0.8133,2.2311l0.8133,2.2161l0.8134,2.1985l0.8133,2.1789l0.8134,2.1568l0.8132,2.1327l0.8134,2.1064l0.8133,2.0777l0.8134,2.0472l0.8133,2.0143l0.8134,1.9796l0.8132,1.9428l0.8134,1.9039l0.8133,1.8633l0.8134,1.8206l0.8133,1.7761l0.8134,1.7299l0.8132,1.6818l0.8134,1.6322l0.8133,1.5807l0.8134,1.5278l0.8133,1.4733l0.8134,1.4173l0.8132,1.3599l0.8134,1.3011l0.8133,1.241l0.8134,1.1796l0.8133,1.1172l0.8134,1.0535l0.8132,0.9888l0.8134,0.923l0.8133,0.8565l0.8134,0.789l0.8133,0.7207l0.8133,0.6517l0.8133,0.5821l0.8134,0.5119l0.8133,0.4411l0.8134,0.3699l0.8133,0.2984l0.8133,0.2265l0.8133,0.1545l0.8134,0.0822l0.8133,0.0099l0.8134,-0.0624l0.8134,-0.1346l0.8132,-0.2068l0.8133,-0.2788l0.8134,-0.3503l0.8133,-0.4216l0.8134,-0.4925l0.8134,-0.5629l0.8132,-0.6327l0.8133,-0.7019l0.8134,-0.7704l0.8134,-0.838l0.8133,-0.9049l0.8132,-0.9709l0.8134,-1.0359l0.8134,-1.0998l0.8133,-1.1626l0.8134,-1.2243l0.8133,-1.2848l0.8132,-1.3439l0.8134,-1.4017l0.8134,-1.458l0.8133,-1.5131l0.8134,-1.5664l0.8133,-1.6182l0.8133,-1.6683l0.8133,-1.7169l0.8134,-1.7636l0.8133,-1.8086l0.8134,-1.8518l0.8133,-1.893l0.8133,-1.9323l0.8133,-1.9697l0.8134,-2.005l0.8133,-2.0383l0.8134,-2.0696l0.8132,-2.0988l0.8134,-2.1256l0.8133,-2.1505l0.8134,-2.173l0.8133,-2.1934l0.8134,-2.2115l0.8132,-2.2273l0.8134,-2.2407l0.8133,-2.2519l0.8134,-2.2608l0.8133,-2.2672l0.8134,-2.2713l0.8132,-2.2731l0.8134,-2.2724l0.8133,-2.2693l0.8134,-2.2639l0.8133,-2.2561l0.8134,-2.2459l0.8132,-2.2332l0.8134,-2.2182l0.8133,-2.2008l0.8134,-2.1811l0.8133,-2.1589l0.8134,-2.1345l0.8132,-2.1076l0.8134,-2.0786l0.8133,-2.0472l0.8134,-2.0135l0.8133,-1.9776l0.8133,-1.9395l0.8133,-1.8992l0.8134,-1.8567l0.8133,-1.8122l0.8134,-1.7654l0.8133,-1.7167l0.8133,-1.666l0.8133,-1.6132l0.8134,-1.5586l0.8133,-1.502l0.8134,-1.4437l0.8134,-1.3834l0.8132,-1.3215l0.8133,-1.2579l0.8134,-1.1926l0.8133,-1.1257l0.8134,-1.0573l0.8134,-0.9874l0.8132,-0.9161l0.8133,-0.8435l0.8134,-0.7695l0.8134,-0.6942l0.8133,-0.6179l0.8132,-0.5403l0.8134,-0.4619l0.8134,-0.3822l0.8133,-0.3019l0.8134,-0.2205l0.8133,-0.1385l0.8132,-0.0557l0.8134,0.0277l0.8134,0.1118l0.8133,0.1961l0.8134,0.2811l0.8133,0.3664l0.8133,0.4519l0.8133,0.5376l0.8134,0.6235l0.8133,0.7094l0.8134,0.7953l0.8133,0.8811l0.8133,0.9669l0.8133,1.0522l0.8134,1.1373l0.8133,1.2221l0.8134,1.3064l0.8132,1.3901l0.8134,1.4733l0.8133,1.5557l0.8134,1.6375l0.8133,1.7184l0.8134,1.7984l0.8132,1.8775l0.8134,1.9556l0.8133,2.0325l0.8134,2.1084l0.8133,2.183l0.8134,2.2562l0.8132,2.3283l0.8134,2.3987l0.8133,2.4679l0.8134,2.5354l0.8133,2.6014l0.8134,2.6656l0.8132,2.7283l0.8134,2.7891l0.8133,2.8481l0.8134,2.9053l0.8133,2.9606l0.8134,3.0139l0.8132,3.0651l0.8134,3.1144l0.8133,3.1615l0.8134,3.2066l0.8133,3.2493l0.8133,3.29l0.8133,3.3284l0.8134,3.3644l0.8133,3.3983l0.8134,3.4297l0.8133,3.4587l0.8133,3.4854l0.8133,3.5098l0.8134,3.5315l0.8133,3.5509l0.8134,3.5677l0.8134,3.5822l0.8132,3.5941l0.8133,3.6035l0.8134,3.6103l0.8133,3.6147l0.8134,3.6165l0.8134,3.6158l0.8132,3.6125l0.8133,3.6068l0.8134,3.5985l0.8134,3.5876l0.8133,3.5743l0.8132,3.5585l0.8134,3.5403l0.8134,3.5194l0.8133,3.4963l0.8134,3.4706l0.8133,3.4426l0.8132,3.4121l0.8134,3.3794l0.8134,3.3443l0.8133,3.3069l0.8134,3.2672l0.8133,3.2254l0.8133,3.1813l0.8133,3.1351l0.8134,3.0867l0.8133,3.0364l0.8134,2.9838l0.8133,2.9296l0.8133,2.8731l0.8133,2.8149l0.8134,2.7549l0.8133,2.693l0.8134,2.6294l0.8132,2.5642l0.8134,2.4973l0.8133,2.4289l0.8134,2.359l0.8133,2.2876l0.8134,2.2149l0.8132,2.1409l0.8134,2.0655l0.8133,1.9891l0.8134,1.9115l0.8133,1.8328l0.8134,1.7532l0.8132,1.6726l0.8134,1.5913l0.8133,1.5091l0.8134,1.4262l0.8133,1.3427l0.8134,1.2587l0.8132,1.1741l0.8134,1.0892l0.8133,1.0038l0.8134,0.9183l0.8133,0.8326l0.8134,0.7466l0.8132,0.6608l0.8134,0.5748l0.8133,0.489l0.8134,0.4034l0.8133,0.318l0.8133,0.2329l0.8133,0.1483l0.8134,0.064l0.8133,-0.0196l0.8134,-0.1027l0.8133,-0.185l0.8133,-0.2667l0.8133,-0.3476l0.8134,-0.4274l0.8133,-0.5065l0.8134,-0.5844l0.8134,-0.6612l0.8132,-0.7371l0.8133,-0.8115l0.8134,-0.8848l0.8133,-0.9567l0.8134,-1.0272l0.8134,-1.0963l0.8132,-1.1638l0.8133,-1.2297l0.8134,-1.2942l0.8134,-1.3568l0.8133,-1.4177l0.8132,-1.477l0.8134,-1.5343l0.8134,-1.5898l0.8133,-1.6433l0.8134,-1.695l0.8133,-1.7446l0.8132,-1.7921l0.8134,-1.8377l0.8134,-1.881l0.8133,-1.9223l0.8134,-1.9614l0.8133,-1.9982l0.8133,-2.0329l0.8133,-2.0652l0.8134,-2.0954l0.8133,-2.1231l0.8134,-2.1486l0.8133,-2.1718l0.8133,-2.1925l0.8133,-2.211l0.8134,-2.227l0.8133,-2.2407l0.8134,-2.2519l0.8132,-2.2608l0.8134,-2.2673l0.8133,-2.2714l0.8134,-2.273l0.8133,-2.2724l0.8134,-2.2693l0.8132,-2.2638l0.8134,-2.2561l0.8133,-2.2459l0.8134,-2.2334l0.8133,-2.2185l0.8134,-2.2015l0.8132,-2.1822l0.8134,-2.1605l0.8133,-2.1367l0.8134,-2.1107l0.8133,-2.0824l0.8134,-2.0522l0.8132,-2.0197l0.8134,-1.9853l0.8133,-1.9487l0.8134,-1.9103l0.8133,-1.8698l0.8134,-1.8275l0.8132,-1.7834l0.8134,-1.7373l0.8133,-1.6896l0.8134,-1.6402l0.8133,-1.5891l0.8133,-1.5363l0.8133,-1.4821l0.8134,-1.4263l0.8133,-1.3691l0.8134,-1.3105l0.8133,-1.2507l0.8133,-1.1895l0.8133,-1.1272l0.8134,-1.0637l0.8133,-0.9991l0.8134,-0.9337l0.8134,-0.8671l0.8132,-0.7998l0.8133,-0.7316l0.8134,-0.6628l0.8133,-0.5932l0.8134,-0.5231l0.8134,-0.4524l0.8132,-0.3813l0.8133,-0.3098l0.8134,-0.238l0.8134,-0.1659l0.8133,-0.0938l0.8132,-0.0214l0.8134,0.0509l0.8134,0.1232l0.8133,0.1953l0.8134,0.2672l0.8133,0.339l0.8132,0.4103l0.8134,0.4813l0.8134,0.5517l0.8133,0.6216l0.8134,0.6909l0.8133,0.7595l0.8133,0.8273l0.8133,0.8944l0.8134,0.9604l0.8133,1.0256l0.8134,1.0897l0.8133,1.1527l0.8133,1.2145l0.8133,1.2752l0.8134,1.3346l0.8133,1.3926l0.8134,1.4492l0.8132,1.5044l0.8134,1.558l0.8133,1.61l0.8134,1.6605l0.8133,1.7093l0.8134,1.7563l0.8132,1.8016l0.8134,1.8449l0.8133,1.8866l0.8134,1.9262l0.8133,1.9638l0.8134,1.9996l0.8132,2.0332l0.8134,2.0647l0.8133,2.0942l0.8134,2.1216l0.8133,2.1466l0.8134,2.1696l0.8132,2.1903l0.8134,2.2087l0.8133,2.225l0.8134,2.2387l0.8133,2.2503l0.8134,2.2595l0.8132,2.2664l0.8134,2.2708l0.8133,2.2729l0.8134,2.2727l0.8133,2.27l0.8133,2.265l0.8133,2.2574l0.8134,2.2477l0.8133,2.2353l0.8134,2.2208l0.8133,2.2037l0.8133,2.1844l0.8133,2.1626l0.8134,2.1385l0.8133,2.1121l0.8134,2.0834l0.8134,2.0523l0.8132,2.0191l0.8133,1.9834l0.8134,1.9458l0.8133,1.9057l0.8134,1.8636l0.8134,1.8194l0.8132,1.773l0.8133,1.7247l0.8134,1.6741l0.8134,1.6218l0.8133,1.5674l0.8132,1.5112l0.8134,1.453l0.8134,1.3932l0.8133,1.3314l0.8134,1.2682l0.8133,1.2031l0.8132,1.1364l0.8134,1.0683l0.8134,0.9987l0.8133,0.9276l0.8134,0.8551l0.8133,0.7813l0.8133,0.7063l0.8133,0.6301l0.8134,0.5528l0.8133,0.4744l0.8134,0.395l0.8133,0.3147l0.8133,0.2336l0.8133,0.1516l0.8134,0.0689l0.8133,-0.0144l0.8134,-0.0983l0.8132,-0.1827l0.8134,-0.2676l0.8133,-0.3527l0.8134,-0.4383l0.8133,-0.5239l0.8134,-0.6098l0.8132,-0.6957l0.8134,-0.7817l0.8133,-0.8675l0.8134,-0.9531l0.8133,-1.0387l0.8134,-1.1238l0.8132,-1.2086l0.8134,-1.293l0.8133,-1.3768l0.8134,-1.4601l0.8133,-1.5427l0.8134,-1.6244l0.8132,-1.7056l0.8134,-1.7857l0.8133,-1.865l0.8134,-1.9432l0.8133,-2.0204l0.8134,-2.0964l0.8132,-2.1711l0.8134,-2.2447l0.8133,-2.3169l0.8134,-2.3876l0.8133,-2.457l0.8133,-2.5247l0.8133,-2.591l0.8134,-2.6555l0.8133,-2.7185l0.8134,-2.7795l0.8133,-2.8389l0.8133,-2.8963l0.8133,-2.9519l0.8134,-3.0055l0.8133,-3.0571l0.8134,-3.1067l0.8134,-3.1541l0.8132,-3.1995l0.8133,-3.2427l0.8134,-3.2837l0.8133,-3.3224l0.8134,-3.3589l0.8134,-3.393l0.8132,-3.4248l0.8133,-3.4543l0.8134,-3.4814l0.8134,-3.506l0.8133,-3.5282l0.8132,-3.5479l0.8134,-3.5653l0.8134,-3.58l0.8133,-3.5924l0.8134,-3.6021l0.8133,-3.6095l0.8132,-3.6141l0.8134,-3.6164l0.8134,-3.6161l0.8133,-3.6132l0.8134,-3.6079l0.8133,-3.5999l0.8133,-3.5895l0.8133,-3.5767l0.8134,-3.5612l0.8133,-3.5433l0.8134,-3.5229l0.8133,-3.5001l0.8133,-3.4748l0.8133,-3.4472l0.8134,-3.4172l0.8133,-3.3848l0.8134,-3.35l0.8132,-3.313l0.8134,-3.2737l0.8133,-3.2322l0.8134,-3.1885l0.8133,-3.1426l0.8134,-3.0945l0.8132,-3.0445l0.8134,-2.9924l0.8133,-2.9383l0.8134,-2.8823l0.8133,-2.8243l0.8134,-2.7645l0.8132,-2.703l0.8134,-2.6397l0.8133,-2.5746l0.8134,-2.5081l0.8133,-2.4399l0.8134,-2.3702l0.8132,-2.2991l0.8134,-2.2266l0.8133,-2.1527l0.8134,-2.0776l0.8133,-2.0014l0.8134,-1.9239l0.8132,-1.8454l0.8134,-1.7659l0.8133,-1.6855l0.8134,-1.6043l0.8133,-1.5223l0.8133,-1.4394l0.8133,-1.3561l0.8134,-1.2721l0.8133,-1.1876l0.8134,-1.1027l0.8133,-1.0175l0.8133,-0.9319l0.8133,-0.8462l0.8134,-0.7604l0.8133,-0.6744l0.8134,-0.5885l0.8134,-0.5026l0.8132,-0.4171l0.8133,-0.3315l0.8134,-0.2465l0.8133,-0.1617l0.8134,-0.0775l0.8134,0.0064l0.8132,0.0895l0.8133,0.172l0.8134,0.2537l0.8134,0.3347l0.8133,0.4148l0.8132,0.494l0.8134,0.572l0.8134,0.6491l0.8133,0.7251l0.8134,0.7997l0.8133,0.8732l0.8132,0.9454l0.8134,1.016l0.8134,1.0854l0.8133,1.1531l0.8134,1.2194l0.8133,1.284l0.8133,1.347l0.8133,1.4081l0.8134,1.4677l0.8133,1.5253l0.8134,1.581l0.8133,1.635l0.8133,1.6869l0.8133,1.7368l0.8134,1.7847l0.8133,1.8305l0.8134,1.8743l0.8132,1.9159l0.8134,1.9553l0.8133,1.9925l0.8134,2.0275l0.8133,2.0602l0.8134,2.0907l0.8132,2.1189l0.8134,2.1447l0.8133,2.1682l0.8134,2.1894l0.8133,2.2082l0.8134,2.2246l0.8132,2.2387l0.8134,2.2503l0.8133,2.2595l0.8134,2.2665l0.8133,2.2708l0.8134,2.273l0.8132,2.2726l0.8134,2.27l0.8133,2.2648l0.8134,2.2575l0.8133,2.2476l0.8134,2.2356l0.8132,2.2211l0.8134,2.2044l0.8133,2.1853l0.8134,2.1641l0.8133,2.1407l0.8133,2.1149l0.8133,2.0871l0.8134,2.0572l0.8133,2.025l0.8134,1.9909l0.8133,1.9547l0.8133,1.9165l0.8133,1.8764l0.8134,1.8344l0.8133,1.7905l0.8134,1.7448l0.8134,1.6973l0.8132,1.6482l0.8133,1.5973l0.8134,1.5448l0.8133,1.4908l0.8134,1.4353l0.8134,1.3783l0.8132,1.32l0.8133,1.2603l0.8134,1.1993l0.8134,1.1372l0.8133,1.0739l0.8132,1.0095l0.8134,0.9441l0.8134,0.8778l0.8133,0.8106l0.8134,0.7425l0.8133,0.6738l0.8132,0.6043l0.8134,0.5343l0.8134,0.4637l0.8133,0.3926l0.8134,0.3213l0.8133,0.2494l0.8133,0.1774l0.8133,0.1053l0.8134,0.0329l0.8133,-0.0393l0.8134,-0.1117l0.8133,-0.1839l0.8133,-0.2558l0.8133,-0.3276l0.8134,-0.3989l0.8133,-0.47l0.8134,-0.5405l0.8132,-0.6106l0.8134,-0.6799l0.8133,-0.7486l0.8134,-0.8166l0.8133,-0.8837l0.8134,-0.95l0.8132,-1.0152l0.8134,-1.0796l0.8133,-1.1427l0.8134,-1.2048l0.8133,-1.2656l0.8134,-1.3253l0.8132,-1.3834l0.8134,-1.4403l0.8133,-1.4957l0.8134,-1.5495l0.8133,-1.6019l0.8134,-1.6526l0.8132,-1.7016l0.8134,-1.7489l0.8133,-1.7945l0.8134,-1.8382l0.8133,-1.88l0.8134,-1.92l0.8132,-1.958l0.8134,-1.994l0.8133,-2.028l0.8134,-2.0599l0.8133,-2.0896l0.8133,-2.1173l0.8133,-2.1428l0.8134,-2.1661l0.8133,-2.1872l0.8134,-2.2059l0.8133,-2.2225l0.8133,-2.2367l0.8133,-2.2486l0.8134,-2.2582l0.8133,-2.2655l0.8134,-2.2702l0.8134,-2.2728l0.8132,-2.2729l0.8133,-2.2706l0.8134,-2.2659l0.8133,-2.2588l0.8134,-2.2494l0.8134,-2.2374l0.8132,-2.2233l0.8133,-2.2066l0.8134,-2.1876l0.8134,-2.1662l0.8133,-2.1426l0.8132,-2.1164l0.8134,-2.0881l0.8134,-2.0574l0.8133,-2.0245l0.8134,-1.9893l0.8133,-1.9519l0.8132,-1.9123l0.8134,-1.8704l0.8134,-1.8266l0.8133,-1.7805l0.8134,-1.7325l0.8133,-1.6824l0.8133,-1.6302l0.8133,-1.5762l0.8134,-1.5202l0.8133,-1.4625l0.8134,-1.4028l0.8133,-1.3414l0.8133,-1.2783l0.8133,-1.2136l0.8134,-1.1472l0.8133,-1.0792l0.8134,-1.0099l0.8132,-0.939l0.8134,-0.8667l0.8133,-0.7932l0.8134,-0.7183l0.8133,-0.6423l0.8134,-0.5652l0.8132,-0.4869l0.8134,-0.4078l0.8133,-0.3275l0.8134,-0.2465l0.8133,-0.1647l0.8134,-0.0822l0.8132,0.0011l0.8134,0.0849l0.8133,0.1693l0.8134,0.254l0.8133,0.3391l0.8134,0.4246l0.8132,0.5103l0.8134,0.5961l0.8133,0.6821l0.8134,0.7679l0.8133,0.8539l0.8134,0.9395l0.8132,1.0251l0.8134,1.1102l0.8133,1.1952l0.8134,1.2796l0.8133,1.3635l0.8133,1.4468l0.8133,1.5295l0.8134,1.6116"/>
   </g>
  </g>
  <text x="-0.51105" y="34.24049" fill="#000000" font-family="sans-serif" font-size="30px" font-weight="bold" font-style="normal" id="text1916" xml:space="preserve">
   <tspan id="tspan8443" y="39.63553" x="148.7168"></tspan>
  </text>
  <text fill="#000000" font-family="sans-serif" font-size="40px" font-weight="bold" font-style="normal" id="text6872" y="175.80194" x="352.11493" xml:space="preserve">
   <tspan y="175.80194" x="352.11493" id="tspan6870" ></tspan>
  </text>
  <path transform="rotate(-147 362.21 213.527)" stroke-width="5" id="svg_1" d="m351.21037,213.47541l10.99998,-21.4484l10.99998,21.4484l-5.49999,0l0,21.5516l-10.99998,0l0,-21.5516l-5.49999,0z" stroke="#000" fill="#fff"/>
 </g>
</svg>