<svg xmlns="http://www.w3.org/2000/svg" xmlns:xlink="http://www.w3.org/1999/xlink" version="1.1" baseProfile="full" width="548" height="307" style="position:absolute;left:0;top:0;user-select:none"><rect width="548" height="307" x="0" y="0" id="0" fill="none"></rect><g><path d="M50 257.5L508 257.5" fill="none" stroke="#E0E6F1"></path><path d="M50 203.5L508 203.5" fill="none" stroke="#E0E6F1"></path><path d="M50 148.5L508 148.5" fill="none" stroke="#E0E6F1"></path><path d="M50 94.5L508 94.5" fill="none" stroke="#E0E6F1"></path><path d="M50 40.5L508 40.5" fill="none" stroke="#E0E6F1"></path><path d="M50 246.5L508 246.5" fill="none" stroke="#F4F7FD"></path><path d="M50 235.5L508 235.5" fill="none" stroke="#F4F7FD"></path><path d="M50 224.5L508 224.5" fill="none" stroke="#F4F7FD"></path><path d="M50 213.5L508 213.5" fill="none" stroke="#F4F7FD"></path><path d="M50 192.5L508 192.5" fill="none" stroke="#F4F7FD"></path><path d="M50 181.5L508 181.5" fill="none" stroke="#F4F7FD"></path><path d="M50 170.5L508 170.5" fill="none" stroke="#F4F7FD"></path><path d="M50 159.5L508 159.5" fill="none" stroke="#F4F7FD"></path><path d="M50 137.5L508 137.5" fill="none" stroke="#F4F7FD"></path><path d="M50 127.5L508 127.5" fill="none" stroke="#F4F7FD"></path><path d="M50 116.5L508 116.5" fill="none" stroke="#F4F7FD"></path><path d="M50 105.5L508 105.5" fill="none" stroke="#F4F7FD"></path><path d="M50 83.5L508 83.5" fill="none" stroke="#F4F7FD"></path><path d="M50 72.5L508 72.5" fill="none" stroke="#F4F7FD"></path><path d="M50 61.5L508 61.5" fill="none" stroke="#F4F7FD"></path><path d="M50 51.5L508 51.5" fill="none" stroke="#F4F7FD"></path><path d="M50.5 40L50.5 257" fill="none" stroke="#E0E6F1"></path><path d="M164.5 40L164.5 257" fill="none" stroke="#E0E6F1"></path><path d="M279.5 40L279.5 257" fill="none" stroke="#E0E6F1"></path><path d="M393.5 40L393.5 257" fill="none" stroke="#E0E6F1"></path><path d="M508.5 40L508.5 257" fill="none" stroke="#E0E6F1"></path><path d="M73.5 40L73.5 257" fill="none" stroke="#F4F7FD"></path><path d="M96.5 40L96.5 257" fill="none" stroke="#F4F7FD"></path><path d="M118.5 40L118.5 257" fill="none" stroke="#F4F7FD"></path><path d="M141.5 40L141.5 257" fill="none" stroke="#F4F7FD"></path><path d="M187.5 40L187.5 257" fill="none" stroke="#F4F7FD"></path><path d="M210.5 40L210.5 257" fill="none" stroke="#F4F7FD"></path><path d="M233.5 40L233.5 257" fill="none" stroke="#F4F7FD"></path><path d="M256.5 40L256.5 257" fill="none" stroke="#F4F7FD"></path><path d="M302.5 40L302.5 257" fill="none" stroke="#F4F7FD"></path><path d="M325.5 40L325.5 257" fill="none" stroke="#F4F7FD"></path><path d="M347.5 40L347.5 257" fill="none" stroke="#F4F7FD"></path><path d="M370.5 40L370.5 257" fill="none" stroke="#F4F7FD"></path><path d="M416.5 40L416.5 257" fill="none" stroke="#F4F7FD"></path><path d="M439.5 40L439.5 257" fill="none" stroke="#F4F7FD"></path><path d="M462.5 40L462.5 257" fill="none" stroke="#F4F7FD"></path><path d="M485.5 40L485.5 257" fill="none" stroke="#F4F7FD"></path><path d="M279.5 257L279.5 40" fill="none" stroke="#6E7079" stroke-linecap="round"></path><text dominant-baseline="central" text-anchor="middle" style="font-size:12px;font-family:Microsoft YaHei;" y="-6" transform="translate(279 25)" fill="#6E7079">y</text><path d="M50 148.5L508 148.5" fill="none" stroke="#6E7079" stroke-linecap="round"></path><text dominant-baseline="central" text-anchor="start" style="font-size:12px;font-family:Microsoft YaHei;" transform="translate(523 148.5)" fill="#6E7079">x</text><path d="M279 257.5L274 257.5" fill="none" stroke="#6E7079"></path><path d="M279 203.5L274 203.5" fill="none" stroke="#6E7079"></path><path d="M279 148.5L274 148.5" fill="none" stroke="#6E7079"></path><path d="M279 94.5L274 94.5" fill="none" stroke="#6E7079"></path><path d="M279 40.5L274 40.5" fill="none" stroke="#6E7079"></path><path d="M279 246.5L276 246.5" fill="none" stroke="#6E7079"></path><path d="M279 235.5L276 235.5" fill="none" stroke="#6E7079"></path><path d="M279 224.5L276 224.5" fill="none" stroke="#6E7079"></path><path d="M279 213.5L276 213.5" fill="none" stroke="#6E7079"></path><path d="M279 192.5L276 192.5" fill="none" stroke="#6E7079"></path><path d="M279 181.5L276 181.5" fill="none" stroke="#6E7079"></path><path d="M279 170.5L276 170.5" fill="none" stroke="#6E7079"></path><path d="M279 159.5L276 159.5" fill="none" stroke="#6E7079"></path><path d="M279 137.5L276 137.5" fill="none" stroke="#6E7079"></path><path d="M279 127.5L276 127.5" fill="none" stroke="#6E7079"></path><path d="M279 116.5L276 116.5" fill="none" stroke="#6E7079"></path><path d="M279 105.5L276 105.5" fill="none" stroke="#6E7079"></path><path d="M279 83.5L276 83.5" fill="none" stroke="#6E7079"></path><path d="M279 72.5L276 72.5" fill="none" stroke="#6E7079"></path><path d="M279 61.5L276 61.5" fill="none" stroke="#6E7079"></path><path d="M279 51.5L276 51.5" fill="none" stroke="#6E7079"></path><path d="M50.5 148.5L50.5 153.5" fill="none" stroke="#6E7079"></path><path d="M164.5 148.5L164.5 153.5" fill="none" stroke="#6E7079"></path><path d="M279.5 148.5L279.5 153.5" fill="none" stroke="#6E7079"></path><path d="M393.5 148.5L393.5 153.5" fill="none" stroke="#6E7079"></path><path d="M508.5 148.5L508.5 153.5" fill="none" stroke="#6E7079"></path><path d="M73.5 148.5L73.5 151.5" fill="none" stroke="#6E7079"></path><path d="M96.5 148.5L96.5 151.5" fill="none" stroke="#6E7079"></path><path d="M118.5 148.5L118.5 151.5" fill="none" stroke="#6E7079"></path><path d="M141.5 148.5L141.5 151.5" fill="none" stroke="#6E7079"></path><path d="M187.5 148.5L187.5 151.5" fill="none" stroke="#6E7079"></path><path d="M210.5 148.5L210.5 151.5" fill="none" stroke="#6E7079"></path><path d="M233.5 148.5L233.5 151.5" fill="none" stroke="#6E7079"></path><path d="M256.5 148.5L256.5 151.5" fill="none" stroke="#6E7079"></path><path d="M302.5 148.5L302.5 151.5" fill="none" stroke="#6E7079"></path><path d="M325.5 148.5L325.5 151.5" fill="none" stroke="#6E7079"></path><path d="M347.5 148.5L347.5 151.5" fill="none" stroke="#6E7079"></path><path d="M370.5 148.5L370.5 151.5" fill="none" stroke="#6E7079"></path><path d="M416.5 148.5L416.5 151.5" fill="none" stroke="#6E7079"></path><path d="M439.5 148.5L439.5 151.5" fill="none" stroke="#6E7079"></path><path d="M462.5 148.5L462.5 151.5" fill="none" stroke="#6E7079"></path><path d="M485.5 148.5L485.5 151.5" fill="none" stroke="#6E7079"></path><text dominant-baseline="central" text-anchor="end" style="font-size:12px;font-family:Microsoft YaHei;" transform="translate(42 257)" fill="#6E7079">-2</text><text dominant-baseline="central" text-anchor="end" style="font-size:12px;font-family:Microsoft YaHei;" transform="translate(42 202.75)" fill="#6E7079">-1</text><text dominant-baseline="central" text-anchor="end" style="font-size:12px;font-family:Microsoft YaHei;" transform="translate(42 148.5)" fill="#6E7079">0</text><text dominant-baseline="central" text-anchor="end" style="font-size:12px;font-family:Microsoft YaHei;" transform="translate(42 94.25)" fill="#6E7079">1</text><text dominant-baseline="central" text-anchor="end" style="font-size:12px;font-family:Microsoft YaHei;" transform="translate(42 40)" fill="#6E7079">2</text><text dominant-baseline="central" text-anchor="middle" style="font-size:12px;font-family:Microsoft YaHei;" y="6" transform="translate(50 265)" fill="#6E7079">-4</text><text dominant-baseline="central" text-anchor="middle" style="font-size:12px;font-family:Microsoft YaHei;" y="6" transform="translate(164.5 265)" fill="#6E7079">-2</text><text dominant-baseline="central" text-anchor="middle" style="font-size:12px;font-family:Microsoft YaHei;" y="6" transform="translate(279 265)" fill="#6E7079">0</text><text dominant-baseline="central" text-anchor="middle" style="font-size:12px;font-family:Microsoft YaHei;" y="6" transform="translate(393.5 265)" fill="#6E7079">2</text><text dominant-baseline="central" text-anchor="middle" style="font-size:12px;font-family:Microsoft YaHei;" y="6" transform="translate(508 265)" fill="#6E7079">4</text><g clip-path="url(#zr0-c0)"><path d="M-7.25 -33432.25L-1.525 -30805.4707L4.2 -28335.0059L9.925 -26014.5449L15.65 -23837.8984L21.375 -21799.0156L27.1 -19891.9707L32.825 -18110.9707L38.55 -16450.3516L44.275 -14904.5781L50 -13468.25L55.725 -12136.0928L61.45 -10902.9629L67.175 -9763.8486L72.9 -8713.8672L78.625 -7748.2656L84.35 -6862.4229L90.075 -6051.8462L95.8 -5312.1748L101.525 -4639.1763L107.25 -4028.75L112.975 -3476.9243L118.7 -2979.8589L124.425 -2533.8425L130.15 -2135.2949L135.875 -1780.7656L141.6 -1466.9348L147.325 -1190.6124L153.05 -948.7388L158.775 -738.3844L164.5 -556.75L170.225 -401.1664L175.95 -269.0948L181.675 -158.1264L187.4 -65.9828L193.125 9.4844L198.85 70.2932L204.575 118.3316L210.3 155.3572L216.025 182.9976L221.75 202.75L227.475 215.9816L233.2 223.9292L238.925 227.6996L244.65 228.2692L250.375 226.4844L256.1 223.0612L261.825 218.5856L267.55 213.5132L273.275 208.1696L279 202.75L284.725 197.3196L290.45 191.8132L296.175 186.0356L301.9 179.6612L307.625 172.2344L313.35 163.1692L319.075 151.7496L324.8 137.1292L330.525 118.3316L336.25 94.25L341.975 63.6476L347.7 25.1572L353.425 -22.7184L359.15 -81.6068L364.875 -153.2656L370.6 -239.5828L376.325 -342.5764L382.05 -464.3948L387.775 -607.3164L393.5 -773.75L399.225 -966.2344L404.95 -1187.4388L410.675 -1440.1625L416.4 -1727.3348L422.125 -2052.0156L427.85 -2417.3948L433.575 -2826.7925L439.3 -3283.6587L445.025 -3791.5745L450.75 -4354.25L456.475 -4975.5264L462.2 -5659.375L467.925 -6409.8965L473.65 -7231.3228L479.375 -8128.0156L485.1 -9104.4668L490.825 -10165.2988L496.55 -11315.2627L502.275 -12559.2422L508 -13902.25L513.725 -15349.4287L519.45 -16906.0508L525.175 -18577.5195L530.9 -20369.3711L536.625 -22287.2656L542.35 -24336.998L548.075 -26524.4941L553.8 -28855.8066L559.525 -31337.1211L565.25 -33974.75" fill="none" stroke="#5470c6" stroke-width="2" stroke-linejoin="bevel"></path></g></g><defs><clipPath id="zr0-c0"><path d="M49 39l460 0l0 219l-460 0Z" fill="#000"></path></clipPath></defs></svg>